<?xml version="1.0" encoding="utf-8"?>
<!-- Generator: Adobe Illustrator 23.0.2, SVG Export Plug-In . SVG Version: 6.00 Build 0)  -->
<svg version="1.1" id="Layer_1" xmlns="http://www.w3.org/2000/svg" xmlns:xlink="http://www.w3.org/1999/xlink" x="0px" y="0px"
	 viewBox="0 0 78.9 63.8" enable-background="new 0 0 78.9 63.8" xml:space="preserve">
<g>
	<path d="M34.1,44.5c-0.6-1.2-0.3-2.6,0.7-3.1c-0.3,0-0.6,0-0.9,0.2c-1,0.5-1.4,1.9-0.8,3.1"/>

	<linearGradient id="SVGID_1_" gradientUnits="userSpaceOnUse" x1="6.6453" y1="488.822" x2="10.3371" y2="481.5763" gradientTransform="matrix(1 0 0 1 0 -446)">
		<stop  offset="0.2692" style="stop-color:#1D1D1B;stop-opacity:0"/>
		<stop  offset="0.5113" style="stop-color:#181816;stop-opacity:0.3645"/>
		<stop  offset="0.8171" style="stop-color:#080807;stop-opacity:0.8249"/>
		<stop  offset="0.9333" style="stop-color:#000000"/>
	</linearGradient>
	<polygon opacity="0.5" fill="url(#SVGID_1_)" enable-background="new    " points="8.5,43.6 21.1,41.1 8.6,34.8 -4.1,37.3 	"/>
	<polygon fill="#FDDE84" points="21.1,19.2 59,12.5 46.4,6.2 8.6,13 	"/>
	<g>
		<polygon fill="#C39000" points="21.1,19.2 21.1,41.1 8.6,34.8 8.6,13 		"/>
	</g>
	<polygon fill="#FCCE09" points="21.1,19.2 21.1,41.1 59,34.3 59,12.5 	"/>
	<polygon points="24,21.4 24,38.5 56.7,32.7 56.7,15.5 	"/>

		<linearGradient id="SVGID_2_" gradientUnits="userSpaceOnUse" x1="12.1814" y1="507.7012" x2="15.8192" y2="500.5614" gradientTransform="matrix(1 0 0 1 0 -446)">
		<stop  offset="0.2692" style="stop-color:#1D1D1B;stop-opacity:0"/>
		<stop  offset="0.5113" style="stop-color:#181816;stop-opacity:0.3645"/>
		<stop  offset="0.8171" style="stop-color:#080807;stop-opacity:0.8249"/>
		<stop  offset="0.9333" style="stop-color:#000000"/>
	</linearGradient>
	<polygon opacity="0.5" fill="url(#SVGID_2_)" enable-background="new    " points="16.8,63.8 29.4,61.5 11.3,52.5 -1.4,54.8 	"/>
	<g>

			<linearGradient id="SVGID_3_" gradientUnits="userSpaceOnUse" x1="48.7653" y1="495.229" x2="52.6066" y2="487.6901" gradientTransform="matrix(1 0 0 1 0 -446)">
			<stop  offset="0.2692" style="stop-color:#1D1D1B;stop-opacity:0"/>
			<stop  offset="0.5113" style="stop-color:#181816;stop-opacity:0.3645"/>
			<stop  offset="0.8171" style="stop-color:#080807;stop-opacity:0.8249"/>
			<stop  offset="0.9333" style="stop-color:#000000"/>
		</linearGradient>
		<polygon opacity="0.5" fill="url(#SVGID_3_)" enable-background="new    " points="46,47.7 59.3,45.1 55.4,43.2 42.1,45.8 		"/>
		<path fill="#3A3A3A" d="M57.1,44.1l19-3.4c1-0.2,1.7-1.1,1.7-2.1l1-36.7c-0.5-1.5-2.1-2.3-4.3-1.8L57.3,3.2c-1.1,0.2-2,1.3-2,2.4
			v37.3c0,0,0,1.7,1.1,2.1c0.4,0.2,1,0.2,1.5,0.2"/>
		<path d="M77.2,41.8l-19,3.4c-1,0.2-1.7-0.5-1.7-1.4V6.5c0-1,0.8-1.9,1.7-2.1l19-3.4c1-0.2,1.7,0.5,1.7,1.4v37.3
			C78.9,40.7,78.2,41.7,77.2,41.8z"/>
		<polygon fill="#EFEFEF" points="77.5,37.4 58,41 57.9,8.8 77.4,5.3 		"/>
		<polygon fill="#1FC696" points="64,39.9 58,41 58,25.5 64,24.5 		"/>
		<polygon fill="#FCCE09" points="77.4,8.7 57.9,12.3 57.9,8.8 77.4,5.3 		"/>
		<polygon fill="#FFFFFF" points="77.4,23.9 58,27.4 58,25.5 77.4,21.9 		"/>
		<polygon fill="#FFFFFF" points="65.8,39.5 64,39.9 64,24.8 65.8,24.5 		"/>
		<polygon fill="#FFFFFF" points="73.5,24.6 71.7,24.9 71.7,9.8 73.4,9.5 		"/>
		<polygon fill="#008CFF" points="67.7,25.2 58,26.9 58,26 67.7,24.2 		"/>
		<path fill="#D40511" d="M67.7,17.1c-1.6,0.3-3,1.9-3,3.5s3,4.6,3,4.6s3-4,3-5.6C70.7,17.9,69.3,16.8,67.7,17.1z M67.7,21.3
			c-0.7,0.1-1.2-0.3-1.2-1s0.6-1.3,1.2-1.5c0.7-0.1,1.2,0.3,1.2,1S68.4,21.2,67.7,21.3z"/>
	</g>
	<path fill="#4C4C4C" d="M18.7,44.3l0.9-0.2c0,0-0.2,0.2-0.4,0.2S18.7,44.3,18.7,44.3z"/>
	<path fill="#4C4C4C" d="M27,42.7l0.9-0.2c0,0-0.2,0.2-0.4,0.2S27,42.7,27,42.7z"/>
	<path d="M26.7,45.8c-0.6-1.2-0.3-2.6,0.7-3.1c-0.3,0-0.6,0-0.9,0.2c-1,0.5-1.4,1.9-0.8,3.1"/>
	<path d="M18.5,47.3c-0.6-1.2-0.3-2.6,0.7-3.1c-0.3,0-0.6,0-0.9,0.2c-1,0.5-1.4,1.9-0.8,3.1"/>
	<polygon fill="#EFEFEF" points="29.4,57.6 57.7,52.5 39.5,43.5 11.3,48.6 	"/>
	<g>
		<polygon fill="#DD434C" points="16.4,51.1 44.7,46 39.5,43.5 11.3,48.6 		"/>
	</g>
	<polygon fill="#D3D3D3" points="25.7,53.2 30.7,52.3 26.9,50.4 21.9,51.3 	"/>
	<polygon fill="#D3D3D3" points="30.4,55.8 35.5,54.9 31.7,53.1 26.6,54 	"/>
	<polygon fill="#D3D3D3" points="33.9,51.7 39,50.8 35.2,48.9 30.1,49.8 	"/>
	<polygon fill="#D3D3D3" points="38.6,54.4 43.7,53.4 39.9,51.6 34.8,52.5 	"/>
	<polygon fill="#D3D3D3" points="42,50.3 47,49.3 43.2,47.5 38.2,48.4 	"/>
	<polygon fill="#D3D3D3" points="46.7,52.9 51.8,52 48,50.1 42.9,51 	"/>
	<path d="M20.5,48.3c0.4-0.2,1.1-0.2,1.6,0s0.5,0.5,0.1,0.6c-0.4,0.2-1.1,0.2-1.6,0S20,48.4,20.5,48.3z"/>
	<polygon fill="#8E8E8E" points="29.4,57.6 29.4,61.5 11.3,52.5 11.3,48.6 	"/>
	<g>
		<polygon fill="#A00612" points="16.4,51.1 16.4,55 11.3,52.5 11.3,48.6 		"/>
	</g>
	<polygon fill="#D3D3D3" points="29.4,57.6 29.4,61.5 57.7,56.4 57.7,52.5 	"/>
	<path fill="#4C4C4C" d="M22.2,45.5c-0.6-1.2-1.9-1.8-2.9-1.3c0,0,0,0-0.1,0c0.8,0.1,1.6,0.6,2,1.5c0.6,1.2,0.2,2.6-0.8,3.1
		c0,0,0.5,0.3,1.3,0.2l0,0C22.2,48.6,22.8,46.7,22.2,45.5z"/>
	<path d="M28.7,46.7c0.4-0.2,1.1-0.2,1.6,0c0.4,0.2,0.5,0.5,0.1,0.6c-0.4,0.2-1.1,0.2-1.6,0C28.3,47.2,28.3,46.9,28.7,46.7z"/>
	<path fill="#4C4C4C" d="M30.4,44c-0.6-1.2-1.9-1.8-2.9-1.3c0,0,0,0-0.1,0c0.8,0.1,1.6,0.6,2,1.5c0.6,1.2,0.2,2.6-0.8,3.1
		c0,0,0.5,0.3,1.3,0.2l0,0C30.5,47,31,45.2,30.4,44z"/>
	<path fill="#4C4C4C" d="M34.3,41.4l0.9-0.2c0,0-0.2,0.2-0.4,0.2S34.3,41.4,34.3,41.4z"/>
	<path d="M36.1,45.4c0.4-0.2,1.1-0.2,1.6,0c0.4,0.2,0.5,0.5,0.1,0.6c-0.4,0.2-1.1,0.2-1.6,0C35.7,45.9,35.7,45.6,36.1,45.4z"/>
	<path fill="#4C4C4C" d="M37.8,42.7c-0.6-1.2-1.9-1.8-2.9-1.3c0,0,0,0-0.1,0c0.8,0.1,1.6,0.6,2,1.5c0.6,1.2,0.2,2.6-0.8,3.1
		c0,0,0.5,0.3,1.3,0.2l0,0C37.9,45.7,38.4,43.9,37.8,42.7z"/>
	<g>
		<path fill="#FFFFFF" d="M28.6,28.5v-2.4l0.9-1.1v3.6L29.2,29L28.6,28.5z M29.5,29.6v3.6l-0.9-0.7V30l0.6-0.7L29.5,29.6z"/>
		<path fill="#FFFFFF" d="M31.3,28.3v-3.6l0.9,0.7v2.4l-0.6,0.7L31.3,28.3z M32.2,29.4v2.4l-0.9,1.1v-3.6l0.3-0.4L32.2,29.4z
			 M36.2,23.7l-0.9,1.1l-2.9,0.5l-0.9-0.8L36.2,23.7z M36.2,32.2L31.4,33l0.9-1.1l2.9-0.5L36.2,32.2z M35.4,27.6l0.5,0.4l-0.5,0.5
			l-3.2,0.6l-0.4-0.4l0.4-0.5L35.4,27.6z M35.4,27.3v-2.4l0.9-1.1v3.6L36,27.8L35.4,27.3z M36.3,28.4V32l-0.9-0.7v-2.4l0.6-0.7
			L36.3,28.4z"/>
		<path fill="#FFFFFF" d="M37.9,25.7v-0.9l0.9-0.2v0.9L37.9,25.7z M37.9,31.8v-0.9l0.9-0.2v0.9L37.9,31.8z"/>
		<path fill="#FFFFFF" d="M41.4,26.3L40.8,27l-0.3-0.3v-3.6l0.9,0.7C41.4,23.8,41.4,26.3,41.4,26.3z M41.4,30.2l-0.9,1.1v-3.6
			l0.3-0.4l0.6,0.5C41.4,27.8,41.4,30.2,41.4,30.2z M45.4,22.1l-0.9,1.1l-2.9,0.5l-0.9-0.8L45.4,22.1z M45.4,30.5l-4.7,0.8l0.9-1.1
			l2.9-0.5L45.4,30.5z M45.5,25.8l-0.3,0.4l-0.6-0.5v-2.4l0.9-1.1C45.5,22.2,45.5,25.8,45.5,25.8z M45.5,30.3l-0.9-0.7v-2.4l0.6-0.7
			l0.3,0.3C45.5,26.8,45.5,30.3,45.5,30.3z"/>
		<path fill="#FFFFFF" d="M47,25.5v-3.6l0.9,0.7V25l-0.6,0.7L47,25.5z M51.9,20.9L51,22l-2.9,0.5l-0.9-0.8L51.9,20.9z M51.9,29.4
			l-4.7,0.8l0.9-1.1l2.9-0.5L51.9,29.4z M51.1,24.8l0.5,0.4l-0.5,0.5l-3.2,0.6l-0.4-0.4l0.4-0.5L51.1,24.8z M52.1,25.6v3.6l-0.9-0.7
			V26l0.6-0.7L52.1,25.6z"/>
	</g>
</g>
</svg>
