<?xml version="1.0" encoding="utf-8"?>
<!-- Generator: Adobe Illustrator 22.0.1, SVG Export Plug-In . SVG Version: 6.00 Build 0)  -->
<svg version="1.1" id="Layer_1" xmlns="http://www.w3.org/2000/svg" xmlns:xlink="http://www.w3.org/1999/xlink" x="0px" y="0px"
	 viewBox="0 0 96.4 69.6" style="enable-background:new 0 0 96.4 69.6;" xml:space="preserve">
<g>
	<linearGradient id="SVGID_1_" gradientUnits="userSpaceOnUse" x1="46.132" y1="66.3048" x2="47.5662" y2="63.49">
		<stop  offset="0" style="stop-color:#A1860E;stop-opacity:0"/>
		<stop  offset="0.2051" style="stop-color:#FFFFFF;stop-opacity:0"/>
		<stop  offset="0.3018" style="stop-color:#E7E7E7;stop-opacity:0.1217"/>
		<stop  offset="0.5064" style="stop-color:#A9A9A9;stop-opacity:0.3791"/>
		<stop  offset="0.7996" style="stop-color:#474747;stop-opacity:0.7479"/>
		<stop  offset="1" style="stop-color:#000000"/>
	</linearGradient>
	<polygon style="opacity:0.6;fill:url(#SVGID_1_);" points="48.8,67.6 53.8,66.7 44.8,62.2 39.8,63.1 	"/>
	<linearGradient id="SVGID_2_" gradientUnits="userSpaceOnUse" x1="72.717" y1="65.9975" x2="77.3312" y2="56.9416">
		<stop  offset="0.2692" style="stop-color:#1D1D1B;stop-opacity:0"/>
		<stop  offset="0.5113" style="stop-color:#181816;stop-opacity:0.3645"/>
		<stop  offset="0.8171" style="stop-color:#080807;stop-opacity:0.8249"/>
		<stop  offset="0.9333" style="stop-color:#000000"/>
	</linearGradient>
	<polygon style="opacity:0.5;fill:url(#SVGID_2_);enable-background:new    ;" points="69.7,63.8 87,61.9 76,58.5 63,61.1 	"/>
	<g>
		<linearGradient id="SVGID_3_" gradientUnits="userSpaceOnUse" x1="15.6313" y1="58.6571" x2="19.4659" y2="51.1313">
			<stop  offset="0.2692" style="stop-color:#1D1D1B;stop-opacity:0"/>
			<stop  offset="0.5113" style="stop-color:#181816;stop-opacity:0.3645"/>
			<stop  offset="0.8171" style="stop-color:#080807;stop-opacity:0.8249"/>
			<stop  offset="0.9333" style="stop-color:#000000"/>
		</linearGradient>
		<polygon style="opacity:0.5;fill:url(#SVGID_3_);enable-background:new    ;" points="22.1,61.7 35.1,59.1 13,48.1 0,50.7 		"/>
		<g>
			<polygon style="fill:#634509;" points="35.1,24.2 73.9,17.3 51.8,6.3 13,13.3 			"/>
		</g>
		<g>
			<polygon style="fill:#C39000;" points="23.3,7 62.1,0 51.8,6.3 13,13.3 			"/>
		</g>
		<g>
			<polygon style="fill:#996A0D;" points="67.5,24.5 73.9,17.3 51.8,6.3 45.5,13.5 			"/>
		</g>
		<g>
			<polygon style="fill:#996A0D;" points="35.1,24.2 53.4,24.7 31.3,13.7 13,13.3 			"/>
		</g>
		<polygon style="fill:#FDDE84;" points="35.1,24.2 73.9,17.3 64.9,8.6 26.1,15.6 		"/>
		<g>
			<polygon style="fill:#C39000;" points="35.1,24.2 35.1,59.1 13,48.1 13,13.3 			"/>
		</g>
		<polygon style="fill:#FCCE09;" points="35.1,24.2 35.1,59.1 73.9,52.1 73.9,17.3 		"/>
	</g>
	
		<ellipse transform="matrix(0.7446 -0.6675 0.6675 0.7446 -12.3707 66.9631)" style="fill:#9E7549;" cx="81.3" cy="49.6" rx="10.4" ry="9.4"/>
	<polygon style="fill:#6B4C22;" points="81.4,61.2 75.8,58.4 80.4,58.2 	"/>
	<polygon style="fill:#9E7549;" points="86.3,40.6 91.6,43.3 87.8,44.4 	"/>
	
		<ellipse transform="matrix(0.7489 -0.6627 0.6627 0.7489 -12.8605 70.3773)" style="fill:#BC9361;" cx="86.4" cy="52.2" rx="10.4" ry="9.4"/>
	
		<ellipse transform="matrix(0.7489 -0.6627 0.6627 0.7489 -12.8579 70.3841)" style="fill:#E5E5E5;" cx="86.4" cy="52.2" rx="8" ry="7.2"/>
	<path style="fill:#C9C9C9;" d="M80.9,47.5c1.4-1.6,3.3-2.6,5.5-2.9c4.2-0.4,7.7,2.6,7.7,6.7c0,0.9-0.1,1.7-0.4,2.5"/>
	<path style="fill:#FFFFFF;" d="M87.5,49.6c0-2.1-1.2-3.8-2.9-4.5c-1.6,0.6-2.9,1.5-3.9,2.8c-1.1,1.4-1.8,3.2-1.8,5.1
		c0,0.9,0.2,1.8,0.5,2.6c0.8,0.3,1.6,0.4,2.5,0.3C85,55.5,87.5,52.7,87.5,49.6z"/>
	<polygon style="fill:#9E7549;" points="53.8,66.7 74.3,63 65.9,58.4 44.8,62.2 	"/>
	<path style="fill:#9E7549;" d="M78,58.3c0,0,0.3,2.6-2.1,4.1c-0.4,0.3-1.1,0.5-1.7,0.6l-8.4-4.6c0,0,1.1-0.2,2-0.3
		c1.2-0.2,2.7-0.3,3.6-2c0.3-0.6,0.4-1.8,0.2-3L78,58.3z"/>
	<polygon style="fill:#EFEFEF;" points="18.3,69.6 34.7,66.7 18.4,58.7 2,61.6 	"/>
	<g>
		<g>
			<g>
				<path style="fill-rule:evenodd;clip-rule:evenodd;" d="M15.2,65.2c0.9,0.4,1.7,0.8,2.6,1.2c2.8-0.4,5.6-0.9,8.5-1.3
					c-0.9-0.4-1.7-0.8-2.6-1.2C20.9,64.3,18.1,64.8,15.2,65.2z"/>
			</g>
			<g>
				<path style="fill-rule:evenodd;clip-rule:evenodd;" d="M8.1,61.8c0.8,0.4,1.5,0.7,2.2,1.1c2.8-0.4,5.7-0.9,8.5-1.3
					c-0.7-0.4-1.5-0.7-2.2-1.1C13.8,60.9,10.9,61.3,8.1,61.8z"/>
			</g>
			<g>
				<path style="fill-rule:evenodd;clip-rule:evenodd;" d="M12.7,64c0.4,0.2,0.7,0.3,1.1,0.5c2.8-0.4,5.7-0.9,8.5-1.3
					c-0.4-0.2-0.7-0.3-1.1-0.5C18.4,63.1,15.6,63.6,12.7,64z"/>
			</g>
			<g>
				<path style="fill-rule:evenodd;clip-rule:evenodd;" d="M28.6,66.2c-0.4-0.2-0.7-0.4-1.1-0.5c-2.8,0.4-5.7,0.9-8.5,1.3
					c0.4,0.2,0.7,0.4,1.1,0.5C22.9,67.1,25.8,66.7,28.6,66.2z"/>
			</g>
			<g>
				<path style="fill-rule:evenodd;clip-rule:evenodd;" d="M11.5,63.4c0.2,0.1,0.3,0.1,0.4,0.2c2.8-0.4,5.7-0.9,8.5-1.3
					c-0.2-0.1-0.3-0.1-0.4-0.2C17.1,62.5,14.3,63,11.5,63.4z"/>
			</g>
		</g>
	</g>
</g>
</svg>
