<?xml version="1.0" encoding="utf-8"?>
<!-- Generator: Adobe Illustrator 22.0.1, SVG Export Plug-In . SVG Version: 6.00 Build 0)  -->
<svg version="1.1" id="Layer_1" xmlns="http://www.w3.org/2000/svg" xmlns:xlink="http://www.w3.org/1999/xlink" x="0px" y="0px"
	 viewBox="0 0 71.2 81.7" style="enable-background:new 0 0 71.2 81.7;" xml:space="preserve">
<g>
	<path style="fill:#E5E5E5;" d="M27.5,13.4l-1.1,1.5c0,0-4.8,1.7-6.1,4.3c0,0-1.6,1.8,0,17.7l24.1,0.6l-1.9-18.3
		c0,0-0.6-4.9-3.7-5.6c0,0-3.4-0.6-5.5-0.9L27.5,13.4z"/>
	<polygon style="fill:#C9C9C9;" points="31.6,16.9 32,21.3 33,21.1 32.6,16.7 	"/>
	<polygon style="fill:#DEA07B;" points="27.4,11.8 27.4,13.4 32,16.8 33.6,12.8 	"/>
	<path style="fill:#C9C9C9;" d="M20,34.2l2.5-0.5c0,0-0.7-1.7-0.7-3.5c0-1.4-0.2-3.8-0.2-3.8s0.2-4.1,1-6c0.8-1.9,5.2-4.2,5.2-4.2
		l-1.5-1.2c0,0-2.5,1-4.1,2.2c0,0-2.2,1-2.4,3.9C19.7,21.1,19.2,26.7,20,34.2z"/>
	<polygon style="fill:#8E8E8E;" points="27.4,13.4 32,16.8 30.8,18.7 26.3,14.9 	"/>
	<polyline style="fill:#8E8E8E;" points="25,23 25.1,33.2 26.2,33.1 	"/>
	<path style="fill:#F4F4F4;" d="M34.5,13l4.1,0.6c0,0,1.9,0.3,3,2.5c0,0,1.1,1.9,1.2,6.1l-0.5,0.2c0,0-0.7-5.5-2.8-6.6
		c0,0-2.9-1.2-5.2-1.6L34.5,13z"/>
	<polyline style="fill:#8E8E8E;" points="38.3,19.8 40.4,30.5 39.5,30.7 	"/>
	<polygon style="fill:#8E8E8E;" points="33.6,12.8 32,16.8 33.8,17.8 34.5,13 	"/>
	<path style="fill:#F1BE96;" d="M36.6,6.4c0.2,3.7-1.8,6.9-5.1,7.1s-6.1-3-6.4-6.7C24.9,3,25.9,0,30.3,0C34.6,0,36.4,2.7,36.6,6.4z"
		/>
	<path style="fill:#28211E;" d="M28.7,5.8c-0.8-0.1-0.2,2.6-0.7,2.9C27.5,9.1,27.3,7,26.5,7c-1.2,0-1,3-1.4-0.2
		C24.7,3.1,25.9,0,30.3,0c2.9,0,4.7,1.2,5.6,3.2c0,0,0.9,2.2-1.4,2.7C34.4,5.9,32.3,6.4,28.7,5.8z"/>
	<linearGradient id="SVGID_1_" gradientUnits="userSpaceOnUse" x1="14.7931" y1="78.8629" x2="18.4237" y2="71.7373">
		<stop  offset="0.2692" style="stop-color:#1D1D1B;stop-opacity:0"/>
		<stop  offset="0.5113" style="stop-color:#181816;stop-opacity:0.3645"/>
		<stop  offset="0.8171" style="stop-color:#080807;stop-opacity:0.8249"/>
		<stop  offset="0.9333" style="stop-color:#000000"/>
	</linearGradient>
	<polygon style="opacity:0.5;fill:url(#SVGID_1_);enable-background:new    ;" points="20.9,81.7 33.2,79.3 12.3,68.9 0,71.3 	"/>
	<polygon style="fill:#FDDE84;" points="33.2,46.3 69.9,39.7 49,29.3 12.3,35.9 	"/>
	<g>
		<polygon style="fill:#C39000;" points="33.2,46.3 33.2,79.3 12.3,68.9 12.3,35.9 		"/>
	</g>
	<polygon style="fill:#FCCE09;" points="33.2,46.3 33.2,79.3 69.9,72.7 69.9,39.7 	"/>
	<g>
		<polygon style="fill:#996A0D;" points="32.9,45.6 71.2,38.7 49.4,27.9 11,34.8 		"/>
	</g>
	<g>
		<polygon style="fill:#634509;" points="32.9,45.6 32.9,47.7 11,36.8 11,34.8 		"/>
	</g>
	<polygon style="fill:#BC9361;" points="32.9,45.6 32.9,47.7 71.2,40.8 71.2,38.7 	"/>
	<linearGradient id="SVGID_2_" gradientUnits="userSpaceOnUse" x1="28.313" y1="44.3228" x2="30.0935" y2="40.8284">
		<stop  offset="0.2692" style="stop-color:#1D1D1B;stop-opacity:0"/>
		<stop  offset="0.5113" style="stop-color:#181816;stop-opacity:0.3645"/>
		<stop  offset="0.8171" style="stop-color:#080807;stop-opacity:0.8249"/>
		<stop  offset="0.9333" style="stop-color:#000000"/>
	</linearGradient>
	<polygon style="opacity:0.5;fill:url(#SVGID_2_);enable-background:new    ;" points="29.8,45 35.9,43.8 28.6,40.2 22.5,41.4 	"/>
	<g>
		<polygon style="fill:#FDDE84;" points="35.9,38.9 43,37.7 35.7,34.1 28.6,35.3 		"/>
		<polygon style="opacity:0.4;fill:#AA7B33;" points="33,37.5 40.1,36.3 38.4,35.4 31.3,36.6 		"/>
		<g>
			<polygon style="fill:#C39000;" points="35.9,38.9 35.9,43.8 28.6,40.1 28.6,35.3 			"/>
		</g>
		<polygon style="opacity:0.4;fill:#AA7B33;" points="33,37.5 33,39.8 31.3,38.9 31.3,36.6 		"/>
		<polygon style="fill:#FCCE09;" points="35.9,38.9 35.9,43.8 43,42.5 43,37.7 		"/>
	</g>
	<polygon style="fill:#FFFFFF;" points="36.9,40 36.9,43 42,42.1 42,39.1 	"/>
	<g>
		<g>
			<g>
				<path style="fill-rule:evenodd;clip-rule:evenodd;" d="M39.8,41.8c0.3-0.1,0.6-0.1,0.9-0.2c0-0.6,0-1.2,0-1.8
					c-0.3,0.1-0.6,0.1-0.9,0.2C39.8,40.7,39.8,41.3,39.8,41.8z"/>
			</g>
			<g>
				<path style="fill-rule:evenodd;clip-rule:evenodd;" d="M37.4,42.3c0.3,0,0.5-0.1,0.8-0.1c0-0.6,0-1.2,0-1.8
					c-0.3,0-0.5,0.1-0.8,0.1C37.4,41.1,37.4,41.7,37.4,42.3z"/>
			</g>
			<g>
				<path style="fill-rule:evenodd;clip-rule:evenodd;" d="M39,42c0.1,0,0.2,0,0.4-0.1c0-0.6,0-1.2,0-1.8c-0.1,0-0.3,0-0.4,0.1
					C39,40.8,39,41.4,39,42z"/>
			</g>
			<g>
				<path style="fill-rule:evenodd;clip-rule:evenodd;" d="M41.5,39.8c-0.1,0-0.3,0-0.4,0.1c0,0.6,0,1.2,0,1.8c0.1,0,0.3,0,0.4-0.1
					C41.5,41,41.5,40.4,41.5,39.8z"/>
			</g>
			<g>
				<path style="fill-rule:evenodd;clip-rule:evenodd;" d="M38.5,42.1c0.1,0,0.1,0,0.2,0c0-0.6,0-1.2,0-1.8c-0.1,0-0.1,0-0.2,0
					C38.5,40.9,38.5,41.5,38.5,42.1z"/>
			</g>
		</g>
	</g>
	<linearGradient id="SVGID_3_" gradientUnits="userSpaceOnUse" x1="43.1434" y1="37.577" x2="44.4481" y2="35.0164">
		<stop  offset="0.2692" style="stop-color:#1D1D1B;stop-opacity:0"/>
		<stop  offset="0.5113" style="stop-color:#181816;stop-opacity:0.3645"/>
		<stop  offset="0.8171" style="stop-color:#080807;stop-opacity:0.8249"/>
		<stop  offset="0.9333" style="stop-color:#000000"/>
	</linearGradient>
	<polygon style="opacity:0.5;fill:url(#SVGID_3_);enable-background:new    ;" points="45.3,38.6 49.8,37.7 42.3,34 37.8,34.9 	"/>
	<polygon style="fill:#FDDE84;" points="49.8,25.9 63,23.5 55.4,19.8 42.3,22.1 	"/>
	<polygon style="opacity:0.4;fill:#AA7B33;" points="46.5,24.3 59.7,21.9 58.5,21.3 45.3,23.6 	"/>
	<g>
		<polygon style="fill:#C39000;" points="49.8,25.9 49.8,37.7 42.3,34 42.3,22.1 		"/>
	</g>
	<polygon style="opacity:0.4;fill:#AA7B33;" points="46.5,24.3 46.5,26.8 45.3,26.2 45.3,23.6 	"/>
	<polygon style="fill:#FCCE09;" points="49.8,25.9 49.8,37.7 63,35.4 63,23.5 	"/>
	<polyline style="fill:#DEA07B;" points="33.9,8.6 34.4,10.4 33.6,10.3 	"/>
	<g id="Logo_8_">
		<g>
			<g>
				<g>
					<polygon style="fill:#D40511;" points="38.3,61.8 42,61.1 41.8,61.4 38.3,62 					"/>
					<polygon style="fill:#D40511;" points="38.3,61.3 42.4,60.5 42.2,60.8 38.3,61.5 					"/>
					<polygon style="fill:#D40511;" points="38.3,62.3 41.6,61.6 41.4,61.9 38.3,62.5 					"/>
				</g>
				<g>
					<polygon style="fill:#D40511;" points="65.8,56.8 62.1,57.5 62.3,57.2 65.8,56.5 					"/>
					<polygon style="fill:#D40511;" points="65.8,57.3 61.7,58.1 61.9,57.8 65.8,57 					"/>
					<polygon style="fill:#D40511;" points="62.7,56.6 65.8,56 65.8,56.3 62.5,56.9 					"/>
				</g>
			</g>
			<g>
				<path style="fill:#D40511;" d="M41.9,61.9l1.8-2.7c0,0,2-0.4,2.2-0.4c0.2,0,0.2,0,0.1,0.2c-0.1,0.2-0.3,0.5-0.4,0.7
					c-0.1,0.1-0.2,0.3,0.2,0.2c0.4-0.1,2.9-0.6,2.9-0.6c-0.2,0.4-1,1.5-2.5,1.7C45,61.3,41.9,61.9,41.9,61.9L41.9,61.9z"/>
				<polygon style="fill:#D40511;" points="52,58.7 51,60.1 48.5,60.6 49.5,59.1 				"/>
				<path style="fill:#D40511;" d="M55.7,58l-1,1.4l-2.5,0.5l1-1.4L55.7,58L55.7,58z"/>
				<path style="fill:#D40511;" d="M56.5,57.8c0,0-0.2,0.3-0.3,0.4c-0.3,0.5,0,0.9,1,0.7c1.2-0.2,4.1-0.8,4.1-0.8l1-1.4L56.5,57.8
					L56.5,57.8z"/>
			</g>
			<g>
				<path style="fill:#D40511;" d="M43.1,57.8l-0.9,1.3c0,0,4.6-0.9,4.8-0.9c0.2,0,0.2,0,0.1,0.2c-0.1,0.2-0.3,0.5-0.4,0.7
					c-0.1,0.1-0.2,0.3,0.2,0.2c0.4-0.1,2-0.4,2-0.4s0.3-0.5,0.6-0.9c0.4-0.5,0-1.5-1.3-1.2C47,57.1,43.1,57.8,43.1,57.8L43.1,57.8z"
					/>
				<polygon style="fill:#D40511;" points="55.9,57.6 49.7,58.8 51.4,56.3 53.9,55.8 52.9,57.3 54.1,57 55,55.6 57.6,55.1 				"/>
				<path style="fill:#D40511;" d="M61.1,54.4L59.4,57l-2.7,0.5l1.7-2.5L61.1,54.4L61.1,54.4z"/>
			</g>
		</g>
	</g>
	<polygon style="fill:#C9C9C9;" points="34.3,20.5 34.6,23.3 36.3,23.6 37.5,22.7 37.2,20 	"/>
	<polyline style="fill:#8E8E8E;" points="37.2,20.5 37.2,20 34.3,20.5 34.4,21 	"/>
	
		<ellipse transform="matrix(0.6424 -0.7664 0.7664 0.6424 -2.1159 31.0334)" style="fill:#8E8E8E;" cx="32.2" cy="17.8" rx="0.3" ry="0.3"/>
	
		<ellipse transform="matrix(0.6424 -0.7664 0.7664 0.6424 -3.1062 31.6029)" style="fill:#8E8E8E;" cx="32.3" cy="19.1" rx="0.3" ry="0.3"/>
	
		<ellipse transform="matrix(0.6424 -0.7664 0.7664 0.6424 -4.1226 32.2013)" style="fill:#8E8E8E;" cx="32.4" cy="20.5" rx="0.3" ry="0.3"/>
	<polygon style="fill:#FFFFFF;" points="55.4,31.7 55.4,35.1 61.2,34.1 61.2,30.7 	"/>
	<g>
		<g>
			<g>
				<path style="fill-rule:evenodd;clip-rule:evenodd;" d="M58.8,33.8c0.3-0.1,0.7-0.1,1-0.2c0-0.7,0-1.3,0-2
					c-0.3,0.1-0.7,0.1-1,0.2C58.8,32.5,58.8,33.1,58.8,33.8z"/>
			</g>
			<g>
				<path style="fill-rule:evenodd;clip-rule:evenodd;" d="M56,34.3c0.3-0.1,0.6-0.1,0.9-0.2c0-0.7,0-1.3,0-2
					c-0.3,0.1-0.6,0.1-0.9,0.2C56,33,56,33.6,56,34.3z"/>
			</g>
			<g>
				<path style="fill-rule:evenodd;clip-rule:evenodd;" d="M57.8,34c0.1,0,0.3,0,0.4-0.1c0-0.7,0-1.3,0-2c-0.1,0-0.3,0-0.4,0.1
					C57.8,32.7,57.8,33.3,57.8,34z"/>
			</g>
			<g>
				<path style="fill-rule:evenodd;clip-rule:evenodd;" d="M60.7,31.5c-0.1,0-0.3,0-0.4,0.1c0,0.7,0,1.3,0,2c0.1,0,0.3-0.1,0.4-0.1
					C60.7,32.8,60.7,32.1,60.7,31.5z"/>
			</g>
			<g>
				<path style="fill-rule:evenodd;clip-rule:evenodd;" d="M57.3,34.1c0.1,0,0.1,0,0.2,0c0-0.7,0-1.3,0-2c-0.1,0-0.1,0-0.2,0
					C57.3,32.7,57.3,33.4,57.3,34.1z"/>
			</g>
		</g>
	</g>
</g>
</svg>
