<?xml version="1.0" encoding="utf-8"?>
<!-- Generator: Adobe Illustrator 22.0.1, SVG Export Plug-In . SVG Version: 6.00 Build 0)  -->
<svg version="1.1" id="Layer_1" xmlns="http://www.w3.org/2000/svg" xmlns:xlink="http://www.w3.org/1999/xlink" x="0px" y="0px"
	 viewBox="0 0 86.2 60.9" style="enable-background:new 0 0 86.2 60.9;" xml:space="preserve">
<g>
	<linearGradient id="SVGID_1_" gradientUnits="userSpaceOnUse" x1="56.3539" y1="62.3934" x2="60.148" y2="54.947">
		<stop  offset="0.2692" style="stop-color:#1D1D1B;stop-opacity:0"/>
		<stop  offset="0.5113" style="stop-color:#181816;stop-opacity:0.3645"/>
		<stop  offset="0.8171" style="stop-color:#080807;stop-opacity:0.8249"/>
		<stop  offset="0.9333" style="stop-color:#000000"/>
	</linearGradient>
	<polygon style="opacity:0.5;fill:url(#SVGID_1_);enable-background:new    ;" points="53.6,60.9 66.7,58.3 62.9,56.4 49.8,59 	"/>
	<linearGradient id="SVGID_2_" gradientUnits="userSpaceOnUse" x1="15.8002" y1="52.9235" x2="19.6762" y2="45.3164">
		<stop  offset="0.2692" style="stop-color:#1D1D1B;stop-opacity:0"/>
		<stop  offset="0.5113" style="stop-color:#181816;stop-opacity:0.3645"/>
		<stop  offset="0.8171" style="stop-color:#080807;stop-opacity:0.8249"/>
		<stop  offset="0.9333" style="stop-color:#000000"/>
	</linearGradient>
	<polygon style="opacity:0.5;fill:url(#SVGID_2_);enable-background:new    ;" points="22.3,56 35.5,53.4 13.2,42.3 0,44.9 	"/>
	<polygon style="fill:#FDDE84;" points="35.5,18.1 74.7,11.1 52.4,0 13.2,7 	"/>
	<polygon style="opacity:0.4;fill:#AA7B33;" points="25.9,13.3 65.1,6.3 61.4,4.5 22.1,11.5 	"/>
	<g>
		<polygon style="fill:#C39000;" points="35.5,18.1 35.5,53.4 13.2,42.3 13.2,7 		"/>
	</g>
	<polygon style="opacity:0.4;fill:#AA7B33;" points="25.9,13.3 25.9,21 22.1,19 22.1,11.5 	"/>
	<polygon style="fill:#FCCE09;" points="35.5,18.1 35.5,53.4 74.7,46.3 74.7,11.1 	"/>
	<polygon style="fill:#FFFFFF;" points="47,32.7 47,45.9 69.9,41.8 69.9,28.6 	"/>
	<g>
		<g>
			<g>
				<path style="fill-rule:evenodd;clip-rule:evenodd;" d="M60.2,41c1.4-0.2,2.7-0.5,4-0.7c0-2.6,0-5.3,0-7.9
					c-1.3,0.2-2.7,0.5-4,0.7C60.2,35.7,60.2,38.4,60.2,41z"/>
			</g>
			<g>
				<path style="fill-rule:evenodd;clip-rule:evenodd;" d="M49.1,42.9c1.2-0.2,2.3-0.4,3.4-0.6c0-2.6,0-5.3,0-7.9
					c-1.2,0.2-2.3,0.4-3.4,0.6C49.1,37.7,49.1,40.3,49.1,42.9z"/>
			</g>
			<g>
				<path style="fill-rule:evenodd;clip-rule:evenodd;" d="M56.3,41.7c0.6-0.1,1.1-0.2,1.7-0.3c0-2.6,0-5.3,0-7.9
					c-0.6,0.1-1.1,0.2-1.7,0.3C56.3,36.4,56.3,39,56.3,41.7z"/>
			</g>
			<g>
				<path style="fill-rule:evenodd;clip-rule:evenodd;" d="M67.7,31.8c-0.6,0.1-1.1,0.2-1.7,0.3c0,2.7,0,5.3,0,7.9
					c0.6-0.1,1.1-0.2,1.7-0.3C67.7,37,67.7,34.4,67.7,31.8z"/>
			</g>
			<g>
				<path style="fill-rule:evenodd;clip-rule:evenodd;" d="M54.4,42c0.2,0,0.4-0.1,0.7-0.1c0-2.6,0-5.3,0-7.9
					c-0.3,0-0.5,0.1-0.7,0.1C54.4,36.8,54.4,39.4,54.4,42z"/>
			</g>
		</g>
	</g>
	<path style="fill:#3A3A3A;" d="M64.6,57.4L83.3,54c0.9-0.2,1.7-1.1,1.7-2l1-36.2c-0.5-1.4-2-2.3-4.2-1.8l-17,3.1
		c-1.1,0.2-2,1.3-2,2.4l0,36.8c0,0,0,1.7,1.1,2.1c0.4,0.2,1,0.2,1.5,0.2"/>
	<path d="M84.5,55.1l-18.7,3.4C64.8,58.7,64,58,64,57.1l0-36.9c0-1,0.8-1.9,1.7-2l18.7-3.4c0.9-0.2,1.7,0.5,1.7,1.4l0,36.9
		C86.2,54,85.4,54.9,84.5,55.1z"/>
	<polygon style="fill:#FFFFFF;" points="84.7,50.8 65.5,54.2 65.4,22.5 84.7,19 	"/>
	<polygon style="fill:#FCCE09;" points="84.7,22.4 65.4,25.9 65.4,22.5 84.7,19 	"/>
	<polygon style="fill:#E5E5E5;" points="84.7,50.8 65.5,54.2 65.5,50.8 84.7,47.4 	"/>
	<g>
		<polygon style="fill:#D20612;" points="72.1,23.9 66.3,25 66.3,23.1 72.1,22.1 		"/>
	</g>
	<g>
		<polygon style="fill:#8E8E8E;" points="73,46 72.9,28.8 73.1,28.8 73.2,46 		"/>
	</g>
	
		<ellipse transform="matrix(0.6424 -0.7664 0.7664 0.6424 4.0207 66.2842)" style="fill:#8E8E8E;" cx="73" cy="28.8" rx="0.7" ry="0.6"/>
	
		<ellipse transform="matrix(0.6424 -0.7664 0.7664 0.6424 -0.3636 68.337)" style="fill:#8E8E8E;" cx="73" cy="34.6" rx="0.7" ry="0.6"/>
	<polygon style="fill:#8E8E8E;" points="70.9,29 69.3,29.3 69.3,29.8 70.9,29.5 	"/>
	<polygon style="fill:#8E8E8E;" points="70.9,34.8 69.3,35.1 69.3,35.6 70.9,35.3 	"/>
	<polygon style="fill:#8E8E8E;" points="81.8,27.1 75.1,28.3 75.1,28.8 81.8,27.6 	"/>
	<polygon style="fill:#8E8E8E;" points="80.9,33 75.1,34 75.1,34.5 80.9,33.5 	"/>
	<polygon style="fill:#8E8E8E;" points="75.1,29.7 75.1,30.2 79,29.5 79,29 	"/>
	
		<ellipse transform="matrix(0.6424 -0.7664 0.7664 0.6424 -4.7678 70.3851)" style="fill:#8E8E8E;" cx="73" cy="40.3" rx="0.7" ry="0.6"/>
	<polygon style="fill:#8E8E8E;" points="70.9,40.5 69.3,40.8 69.3,41.3 70.9,41 	"/>
	<polygon style="fill:#8E8E8E;" points="81.8,38.5 75.1,39.7 75.1,40.2 81.8,39 	"/>
	<polygon style="fill:#8E8E8E;" points="75.1,41.2 75.1,41.7 79,41 79,40.5 	"/>
	
		<ellipse transform="matrix(0.6424 -0.7664 0.7664 0.6424 -9.1655 72.4442)" style="fill:#8E8E8E;" cx="73" cy="46" rx="0.7" ry="0.6"/>
	<polygon style="fill:#8E8E8E;" points="70.9,46.2 69.3,46.5 69.3,47 70.9,46.8 	"/>
	<polygon style="fill:#8E8E8E;" points="80.9,44.4 75.1,45.5 75.1,46 80.9,45 	"/>
</g>
</svg>
