<?xml version="1.0" encoding="utf-8"?>
<!-- Generator: Adobe Illustrator 27.0.1, SVG Export Plug-In . SVG Version: 6.00 Build 0)  -->
<svg version="1.1" id="Laag_1" xmlns="http://www.w3.org/2000/svg" xmlns:xlink="http://www.w3.org/1999/xlink" x="0px" y="0px"
	 viewBox="0 0 700 700" style="enable-background:new 0 0 700 700;" xml:space="preserve">
<g>
	<path d="M434.4,374.5c42.2-27,69.2-74.3,69.2-128.3c0-84.4-69.2-153.6-153.6-153.6s-153.6,69.2-153.6,153.6
		c0,54,27,101.3,69.2,128.3c-84.4,33.8-143.5,116.5-143.5,212.7c0,11.8,10.1,20.3,20.3,20.3c11.8,0,20.3-10.1,20.3-20.3
		c0-103,84.4-187.3,187.3-187.3s187.3,84.4,187.3,187.3c0,11.8,10.1,20.3,20.3,20.3c11.8,0,20.3-10.1,20.3-20.3
		C579.5,489.2,518.8,408.2,434.4,374.5L434.4,374.5z M350,357.6c-62.5,0-111.4-50.6-111.4-111.4c0-62.5,50.6-111.4,111.4-111.4
		c62.5,0,111.4,50.6,111.4,111.4S412.4,357.6,350,357.6z"/>
</g>
</svg>
