<?xml version="1.0" encoding="utf-8"?>
<!-- Generator: Adobe Illustrator 27.0.1, SVG Export Plug-In . SVG Version: 6.00 Build 0)  -->
<svg version="1.1" xmlns="http://www.w3.org/2000/svg" xmlns:xlink="http://www.w3.org/1999/xlink" x="0px" y="0px"
	 viewBox="0 0 700 700" style="enable-background:new 0 0 700 700;" xml:space="preserve">
<style type="text/css">
	.st0{fill:#F7F7F7;}
	.st1{fill:#C6313C;}
</style>
<g id="Laag_2">
	<circle class="st0" cx="350" cy="350" r="224"/>
</g>
<g id="Laag_1">
	<path class="st1" d="M265.9,226.9c15.7,0,26.2,10.5,26.2,24.4c0,14-10.5,24.4-27.9,24.4c-15.7,0-26.2-10.5-26.2-24.4
		C238,237.3,248.5,226.9,265.9,226.9z M294,443.3h-56V294h56V443.3z M480.7,443.3H428v-81.6c0-22.6-14.1-27.8-19.3-27.8
		c-5.3,0-22.8,3.5-22.8,27.8c0,3.5,0,81.6,0,81.6h-54.5V294h54.5v20.8c7-12.2,21.1-20.8,47.4-20.8c26.4,0,47.4,20.8,47.4,67.7V443.3
		z"/>
</g>
</svg>
