<?xml version="1.0" encoding="utf-8"?>
<!-- Generator: Adobe Illustrator 27.0.1, SVG Export Plug-In . SVG Version: 6.00 Build 0)  -->
<svg version="1.1" id="Laag_1" xmlns="http://www.w3.org/2000/svg" xmlns:xlink="http://www.w3.org/1999/xlink" x="0px" y="0px"
	 viewBox="0 0 700 700" style="enable-background:new 0 0 700 700;" xml:space="preserve">
<style type="text/css">
	.st0{fill:#F7F7F7;}
	.st1{fill:#C6313C;}
</style>
<path class="st0" d="M350,126c-123.7,0-224,100.3-224,224s100.3,224,224,224s224-100.3,224-224S473.7,126,350,126z"/>
<path class="st1" d="M488.5,264.1c-10.2,4.5-21.1,7.6-32.6,8.9c11.7-7,20.7-18.2,25-31.4c-11,6.5-23.1,11.2-36.1,13.8
	c-10.4-11-25.1-17.9-41.5-17.9c-31.4,0-56.8,25.4-56.8,56.8c0,4.5,0.5,8.8,1.5,12.9c-47.2-2.4-89.1-25-117.1-59.4
	c-4.9,8.4-7.7,18.2-7.7,28.6c0,19.7,10,37.1,25.3,47.3c-9.3-0.3-18.1-2.9-25.7-7.1c0,0.2,0,0.5,0,0.7c0,27.5,19.6,50.5,45.6,55.7
	c-4.8,1.3-9.8,2-15,2c-3.7,0-7.2-0.4-10.7-1c7.2,22.6,28.2,39,53.1,39.5c-19.4,15.2-43.9,24.3-70.6,24.3c-4.6,0-9.1-0.3-13.6-0.8
	c25.2,16.1,55,25.5,87.1,25.5c104.5,0,161.7-86.6,161.7-161.7c0-2.5-0.1-4.9-0.2-7.4C471.2,285.5,480.9,275.5,488.5,264.1z"/>
</svg>
