<?xml version="1.0" encoding="utf-8"?>
<!-- Generator: Adobe Illustrator 27.0.1, SVG Export Plug-In . SVG Version: 6.00 Build 0)  -->
<svg version="1.1" id="Laag_1" xmlns="http://www.w3.org/2000/svg" xmlns:xlink="http://www.w3.org/1999/xlink" x="0px" y="0px"
	 viewBox="0 0 700 700" style="enable-background:new 0 0 700 700;" xml:space="preserve">
<g>
	<path d="M600.8,558.8l-99-99c47.3-62,59.8-143.8,33-217.1C508,169.6,445.7,115.1,369.5,98.2c-76.1-16.8-155.6,6.4-210.8,61.5
		S80.4,294.4,97.3,370.5c16.8,76.1,71.3,138.5,144.6,165.2c73.2,26.8,155.1,14.4,217.1-33l99,99c7.8,6.7,18.5,9,28.4,6.1
		c9.9-2.9,17.6-10.7,20.6-20.6C609.8,577.4,607.5,566.7,600.8,558.8L600.8,558.8z M320.5,488.9c-44.4,0-87-17.6-118.4-49.1
		c-31.4-31.4-49.1-74-49.1-118.4s17.6-87,49.1-118.4c31.4-31.4,74-49.1,118.4-49.1s87,17.6,118.4,49.1c31.4,31.4,49.1,74,49.1,118.4
		s-17.6,87-49.1,118.4C407.5,471.3,364.9,488.9,320.5,488.9z"/>
</g>
</svg>
