
<svg width="150px" height="22px" viewBox="0 0 150 22" version="1.1" xmlns="http://www.w3.org/2000/svg" xmlns:xlink="http://www.w3.org/1999/xlink">
    <g id="Symbols" stroke="none" stroke-width="1" fill="none" fill-rule="evenodd">
        <g id="Template-element-/-Footer" transform="translate(-145.000000, -434.000000)" fill="#D40511" fill-rule="nonzero">
            <g id="dhl-logo-copy-3" transform="translate(145.000000, 434.000000)">
                <g id="Group" transform="translate(0.000000, 14.000000)">
                    <g id="Shape">
                        <polygon points="0 2.9131 20.2852 2.9131 19.1772 4.4219 0 4.4219"></polygon>
                        <polygon points="0 0.1162 22.3462 0.1162 21.2363 1.6231 0 1.6231"></polygon>
                        <polygon points="0 5.7139 18.2261 5.7139 17.1226 7.211 0 7.211"></polygon>
                    </g>
                    <g transform="translate(127.000000, 0.000000)" id="Shape">
                        <polygon points="23 4.4219 2.7949 4.4219 3.9033 2.9141 23 2.9141"></polygon>
                        <polygon points="23 7.211 0.7393 7.2139 1.8428 5.7139 23 5.7139"></polygon>
                        <polygon points="5.9619 0.1162 23 0.1162 23 1.6231 4.8525 1.624"></polygon>
                    </g>
                </g>
                <g id="Group" transform="translate(19.000000, 8.000000)">
                    <path d="M0.6475,13.211 L10.2734,0.1333 C10.2734,0.1333 20.9443,0.1333 22.2188,0.1333 C23.5391,0.1333 23.522,0.6343 22.8765,1.5088 C22.2212,2.3965 21.106,3.9219 20.439,4.8242 C20.0996,5.2832 19.4873,6.1162 21.5171,6.1162 C23.6631,6.1162 37.5195,6.1162 37.5195,6.1162 C36.1885,7.9395 31.8721,13.211 24.1206,13.211 C17.8379,13.211 0.6475,13.211 0.6475,13.211 Z" id="Shape"></path>
                    <polygon id="Shape" points="55.7759 6.1153 50.5562 13.211 36.7856 13.211 42.0073 6.1162"></polygon>
                    <path d="M75.6885,6.1162 L70.4658,13.211 L56.7007,13.211 C56.7007,13.211 61.9189,6.1162 61.9229,6.1162 L75.6885,6.1162 Z" id="Shape"></path>
                    <path d="M80.165,6.1162 C80.166,6.1162 79.1602,7.4922 78.6709,8.1524 C76.9424,10.4883 78.4697,13.211 84.1123,13.211 C90.6299,13.211 106.2197,13.211 106.2197,13.211 L111.4414,6.1162 L80.165,6.1162 Z" id="Shape"></path>
                </g>
                <g id="Group" transform="translate(21.000000, 0.000000)">
                    <path d="M5.3794,0 L0.5864,6.5112 C0.5864,6.5112 25.4312,6.5112 26.7056,6.5112 C28.0259,6.5112 28.0088,7.0127 27.3638,7.8872 C26.708,8.7739 25.6113,10.3184 24.9438,11.2188 C24.6055,11.6758 23.9927,12.5098 26.0225,12.5098 C28.168,12.5098 36.7031,12.5098 36.7031,12.5098 C36.7031,12.5098 38.4253,10.167 39.8677,8.2085 C41.8315,5.5445 40.0386,0 33.0195,0 C26.7373,0 5.3794,0 5.3794,0 Z" id="Shape"></path>
                    <polygon id="Shape" points="74.8701 12.5098 41.1909 12.5098 50.4004 0 64.167 0 58.8877 7.1729 65.0313 7.1729 70.3135 0 84.0771 0"></polygon>
                    <path d="M103.1396,0 L93.9326,12.5098 L79.3467,12.5098 C79.3467,12.5098 88.5576,0 88.5625,0 L103.1396,0 Z" id="Shape"></path>
                </g>
            </g>
        </g>
    </g>
</svg>
