<?xml version="1.0" encoding="utf-8"?>
<!-- Generator: Adobe Illustrator 22.0.1, SVG Export Plug-In . SVG Version: 6.00 Build 0)  -->
<svg version="1.1" id="Layer_1" xmlns="http://www.w3.org/2000/svg" xmlns:xlink="http://www.w3.org/1999/xlink" x="0px" y="0px"
	 viewBox="0 0 94 53.8" style="enable-background:new 0 0 94 53.8;" xml:space="preserve">
<g>
	<linearGradient id="SVGID_1_" gradientUnits="userSpaceOnUse" x1="17.6038" y1="51.827" x2="22.6035" y2="42.0145">
		<stop  offset="0.2078" style="stop-color:#1D1D1B;stop-opacity:0"/>
		<stop  offset="0.4522" style="stop-color:#121211;stop-opacity:0.3368"/>
		<stop  offset="0.9333" style="stop-color:#000000"/>
	</linearGradient>
	<polygon style="opacity:0.3;fill:url(#SVGID_1_);enable-background:new    ;" points="24.4,53.8 40.2,51 16.5,39.8 0,42.9 	"/>
	<linearGradient id="SVGID_2_" gradientUnits="userSpaceOnUse" x1="34.9547" y1="59.3724" x2="52.0032" y2="25.9127">
		<stop  offset="0.2692" style="stop-color:#1D1D1B;stop-opacity:0"/>
		<stop  offset="0.5113" style="stop-color:#181816;stop-opacity:0.3645"/>
		<stop  offset="0.8171" style="stop-color:#080807;stop-opacity:0.8249"/>
		<stop  offset="0.9333" style="stop-color:#000000"/>
	</linearGradient>
	<polygon style="opacity:0.3;fill:url(#SVGID_2_);enable-background:new    ;" points="25.8,53.4 85.1,42.8 61,31.6 1.9,42.5 	"/>
	<ellipse transform="matrix(0.7489 -0.6627 0.6627 0.7489 -2.8234 63.1189)" cx="81.9" cy="35.3" rx="6.7" ry="6"/>
	<polygon points="36.5,50.6 33.5,49.1 33.5,45.7 35.5,45.7 	"/>
	<path style="fill:#FDDE84;" d="M76.8,20.5l14.1-1.3l-13.9-6.9c-1.7-0.9-3.8-1.2-5.7-1.1l-12.4,0.3L76.8,20.5z"/>
	<g>
		<polygon style="fill:#C39000;" points="23.5,14.2 23.5,46.7 7.9,38.9 7.9,6.5 		"/>
	</g>
	<path style="fill:#FDDE84;" d="M59,12.9l12.6-2L56.2,3.3c-2.1-1-4.5-1.4-6.8-1l-9,1.5L59,12.9z"/>
	<path style="fill:#FCCE09;" d="M94,34.2l0-11.5c0-1.9-3.1-4.1-5.6-4.1l-5.6,0.1l0,0l-9.1-6.9c-2.5-1.9-5.8-2.7-8.9-2.2l-6.1,1.1
		v29.4l18.9-3.3l0,0L94,34.2z"/>
	<path style="fill:#28211E;" d="M82.8,18.8"/>
	<g>
		<polygon style="fill:#C39000;" points="59.4,10.7 59.4,40 43.8,35.5 43.8,3 		"/>
	</g>
	<polygon style="fill:#FDDE84;" points="23.5,14.2 58.6,7.7 43.1,0 7.9,6.5 	"/>
	<polygon style="fill:#4C4C4C;" points="62.3,22.3 80.3,19.1 71.7,12.6 60.9,14.5 	"/>
	<polygon style="fill:#3A3A3A;" points="70.4,20.8 80.3,19.1 71.7,12.6 66.4,13.6 62.3,14.3 	"/>
	<polygon style="fill:#28211E;" points="75.6,19.9 80.3,19.1 71.7,12.6 66.4,13.6 	"/>
	<ellipse transform="matrix(0.7489 -0.6627 0.6627 0.7489 -19.5357 35.47)" cx="37" cy="43.5" rx="6.7" ry="6"/>
	<polygon style="fill:#FCCE09;" points="23.5,14.2 23.5,46.7 58.6,40.2 58.6,7.7 	"/>
	<g>
		<path style="fill:#1FC696;" d="M49.8,29.5c1.8-1.6,3.9-3,6-4.3c-1.2-0.3-2.4-1-3.5-1.7c-0.3-0.2-0.7-0.4-1-0.6
			c-0.8-0.4-1.6-0.8-2.4-1.2c-0.4,0.3-0.9,0.6-1.2,1l0,0c-1.4,1.5-2.7,2.7-3.9,3.8c1.5,0.5,3,1.1,4.3,1.9c0.5,0.3,1,0.6,1.5,0.9
			L49.8,29.5z"/>
		<path style="fill:#1FC696;" d="M40.7,32.6c0.5,0.3,0.9,0.6,1.4,0.9c0.4,0.2,1.7,0.9,2.6,0.4l0,0c1.1-0.6,2.1-1.6,3-2.5l0.6-0.6
			c0.3-0.2,0.5-0.5,0.8-0.7l0,0c-0.5-0.3-1-0.6-1.5-0.9c-1.5-0.8-3.1-1.5-4.7-2c-2,1.7-3.9,2.8-5.5,3.7c0.8,0.2,1.5,0.5,2.3,0.9
			C40,32,40.3,32.3,40.7,32.6z"/>
		<g>
			<defs>
				<path id="SVGID_3_" d="M40.7,32.6c0.5,0.3,0.9,0.6,1.4,0.9c0.4,0.2,1.7,0.9,2.6,0.4l0,0c1.1-0.6,2.1-1.6,3-2.5l0.6-0.6
					c0.3-0.2,0.5-0.5,0.8-0.7l0,0c-0.5-0.3-1-0.6-1.5-0.9c-1.5-0.8-3.1-1.5-4.7-2c-2,1.7-3.9,2.8-5.5,3.7c0.8,0.2,1.5,0.5,2.3,0.9
					C40,32,40.3,32.3,40.7,32.6z"/>
			</defs>
			<clipPath id="SVGID_4_">
				<use xlink:href="#SVGID_3_"  style="overflow:visible;"/>
			</clipPath>
			<g style="opacity:0.7;clip-path:url(#SVGID_4_);">
				<path style="fill:#219D71;" d="M41.6,31.5c0.6-0.2,1.3-0.4,1.9-0.5c0.4-0.1,0.4-1.2-0.1-1.1c-0.6,0.2-1.3,0.4-1.9,0.5
					C41.1,30.6,41.2,31.7,41.6,31.5L41.6,31.5z"/>
				<path style="fill:#219D71;" d="M46.5,30.2c0.8-0.2,1.7-0.5,2.5-0.7c0.6-0.2,0.5-1.2-0.1-1.1c-0.8,0.2-1.7,0.5-2.5,0.7
					C45.9,29.3,45.9,30.3,46.5,30.2L46.5,30.2z"/>
				<path style="fill:#167551;" d="M47.1,31.9c0.6-0.2,1.3-0.4,1.9-0.5c0.4-0.1,0.4-1.2-0.1-1.1c-0.6,0.2-1.3,0.4-1.9,0.5
					C46.6,30.9,46.6,32,47.1,31.9L47.1,31.9z"/>
				<path style="fill:#167551;" d="M42,32.8c1-0.3,2-0.6,2.9-0.8c0.4-0.1,0.4-1.2-0.1-1.1c-1,0.3-2,0.6-2.9,0.8
					C41.5,31.8,41.5,32.9,42,32.8L42,32.8z"/>
				<path style="fill:#167551;" d="M38.7,32.2c1-0.3,2-0.6,2.9-0.8c0.4-0.1,0.4-1.2-0.1-1.1c-1,0.3-2,0.6-2.9,0.8
					C38.2,31.2,38.3,32.3,38.7,32.2L38.7,32.2z"/>
				<path style="fill:#219D71;" d="M42.5,34.2c0.8-0.2,1.7-0.5,2.5-0.7c0.6-0.2,0.5-1.2-0.1-1.1c-0.8,0.2-1.7,0.5-2.5,0.7
					C41.9,33.3,42,34.3,42.5,34.2L42.5,34.2z"/>
				<path style="fill:#167551;" d="M43.9,35c0.6-0.2,1.3-0.4,1.9-0.5c0.4-0.1,0.4-1.2-0.1-1.1c-0.6,0.2-1.3,0.4-1.9,0.5
					C43.4,34.1,43.4,35.2,43.9,35L43.9,35z"/>
				<path style="fill:#167551;" d="M44.1,33.5c1-0.3,2-0.6,2.9-0.8c0.4-0.1,0.4-1.2-0.1-1.1c-1,0.3-2,0.6-2.9,0.8
					C43.6,32.5,43.7,33.6,44.1,33.5L44.1,33.5z"/>
				<path style="fill:#219D71;" d="M43.9,33c0.6-0.2,1.3-0.4,1.9-0.5c0.4-0.1,0.4-1.2-0.1-1.1c-0.6,0.2-1.3,0.4-1.9,0.5
					C43.4,32,43.4,33.1,43.9,33L43.9,33z"/>
				<path style="fill:#219D71;" d="M44.1,31.6c0.6-0.2,1.3-0.4,1.9-0.5c0.4-0.1,0.4-1.2-0.1-1.1c-0.6,0.2-1.3,0.4-1.9,0.5
					C43.6,30.7,43.7,31.7,44.1,31.6L44.1,31.6z"/>
				<path style="fill:#219D71;" d="M40.1,33.6c0.6-0.2,1.3-0.4,1.9-0.5c0.4-0.1,0.4-1.2-0.1-1.1c-0.6,0.2-1.3,0.4-1.9,0.5
					C39.6,32.7,39.7,33.7,40.1,33.6L40.1,33.6z"/>
				<path style="fill:#167551;" d="M42.1,28.2c1-0.3,2-0.6,2.9-0.8c0.4-0.1,0.4-1.2-0.1-1.1c-1,0.3-2,0.6-2.9,0.8
					C41.6,27.2,41.6,28.3,42.1,28.2L42.1,28.2z"/>
				<path style="fill:#219D71;" d="M39,31.1c0.6-0.2,1.3-0.4,1.9-0.5c0.4-0.1,0.4-1.2-0.1-1.1c-0.6,0.2-1.3,0.4-1.9,0.5
					C38.5,30.2,38.6,31.3,39,31.1L39,31.1z"/>
				<path style="fill:#219D71;" d="M42,29.1c0.8-0.2,1.7-0.5,2.5-0.7c0.6-0.2,0.5-1.2-0.1-1.1c-0.8,0.2-1.7,0.5-2.5,0.7
					C41.3,28.2,41.4,29.2,42,29.1L42,29.1z"/>
				<path style="fill:#167551;" d="M43.3,29.9c0.6-0.2,1.3-0.4,1.9-0.5c0.4-0.1,0.4-1.2-0.1-1.1c-0.6,0.2-1.3,0.4-1.9,0.5
					C42.8,29,42.9,30.1,43.3,29.9L43.3,29.9z"/>
			</g>
		</g>
		<path style="fill:#1FC696;" d="M41.3,34.9c0.5-0.1,1-0.2,1.5-0.3c-0.4-0.1-0.7-0.2-1.1-0.4c-0.5-0.3-1-0.6-1.5-0.9
			c-0.4-0.2-0.7-0.5-1.1-0.7c-1-0.6-2-0.9-3.1-1.1c-3.8,1.6-6,1.2-6,1.2c1.3,1.5,2.9,2.6,4.7,3.4L41.3,34.9z"/>
		<path style="fill:#1FC696;" d="M49.6,36.1c0.4-0.9,0.6-1.7,0.7-2.4c0.1-1-0.3-1.9-0.6-2.8c-0.3,0.2-0.5,0.5-0.8,0.7L48.3,32
			c-1.2,1.2-2.4,2.4-4,3c-0.9,0.4-1.9,0.6-2.9,0.8l-5.2,1c4.4,1.5,9.2,1.3,12.6,0.9C49.1,37.2,49.4,36.6,49.6,36.1z"/>
		<path style="fill:#1FC696;" d="M58.6,34.4v-9.7c-0.2,0.1-0.4,0.2-0.6,0.3c0.4,3.2,0.5,6.4,0.3,9.6C58.5,34.5,58.5,34.5,58.6,34.4z
			"/>
		<path style="fill:#1FC696;" d="M58.6,20.4c-1.4-0.7-3-1-4.8-0.7c-1.5,0.2-2.9,0.7-4.2,1.5c0.7,0.3,1.3,0.6,2,1
			c0.4,0.2,0.7,0.4,1.1,0.6c1.4,0.9,2.7,1.8,4.2,1.8l0,0c0.6-0.3,1.1-0.6,1.7-0.9V20.4z"/>
		<g>
			<path style="fill:#1FC696;" d="M57.4,35.3c0.2-3.3,0.1-6.6-0.3-9.9c-2.4,1.3-4.7,2.9-6.8,4.7c0.4,1.1,0.9,2.3,0.8,3.5
				c-0.1,1-0.4,2-0.8,2.7c-0.2,0.4-0.3,0.8-0.5,1.2C51.8,37.3,53,37,53,37l0,0C54.6,36.8,56.1,36.2,57.4,35.3z"/>
		</g>
		<g>
			<defs>
				<path id="SVGID_5_" d="M57.4,35.3c0.2-3.3,0.1-6.6-0.3-9.9c-2.4,1.3-4.7,2.9-6.8,4.7c0.4,1.1,0.9,2.3,0.8,3.5
					c-0.1,1-0.4,2-0.8,2.7c-0.2,0.4-0.3,0.8-0.5,1.2C51.8,37.3,53,37,53,37l0,0C54.6,36.8,56.1,36.2,57.4,35.3z"/>
			</defs>
			<clipPath id="SVGID_6_">
				<use xlink:href="#SVGID_5_"  style="overflow:visible;"/>
			</clipPath>
			<g style="opacity:0.7;clip-path:url(#SVGID_6_);">
				<path style="fill:#219D71;" d="M51.9,36.8c0.6-0.2,1.3-0.4,1.9-0.5c0.4-0.1,0.4-1.2-0.1-1.1c-0.6,0.2-1.3,0.4-1.9,0.5
					C51.4,35.9,51.5,37,51.9,36.8L51.9,36.8z"/>
				<path style="fill:#219D71;" d="M56.4,30.8c0.6-0.2,1.3-0.4,1.9-0.5c0.4-0.1,0.4-1.2-0.1-1.1c-0.6,0.2-1.3,0.4-1.9,0.5
					C55.9,29.8,56,30.9,56.4,30.8L56.4,30.8z"/>
				<path style="fill:#219D71;" d="M50.8,35.4c0.6-0.2,1.3-0.4,1.9-0.5c0.4-0.1,0.4-1.2-0.1-1.1c-0.6,0.2-1.3,0.4-1.9,0.5
					C50.3,34.5,50.4,35.6,50.8,35.4L50.8,35.4z"/>
				<path style="fill:#167551;" d="M52.9,31.4c1-0.3,2-0.6,2.9-0.8c0.4-0.1,0.4-1.2-0.1-1.1c-1,0.3-2,0.6-2.9,0.8
					C52.4,30.5,52.4,31.6,52.9,31.4L52.9,31.4z"/>
				<path style="fill:#167551;" d="M56.9,30c1-0.3,2-0.6,2.9-0.8c0.4-0.1,0.4-1.2-0.1-1.1c-1,0.3-2,0.6-2.9,0.8
					C56.4,29,56.4,30.1,56.9,30L56.9,30z"/>
				<path style="fill:#219D71;" d="M51.6,32.6c0.8-0.2,1.7-0.5,2.5-0.7c0.6-0.2,0.5-1.2-0.1-1.1c-0.8,0.2-1.7,0.5-2.5,0.7
					C51,31.7,51,32.8,51.6,32.6L51.6,32.6z"/>
				<path style="fill:#219D71;" d="M50.3,31.5c0.8-0.2,1.7-0.5,2.5-0.7c0.6-0.2,0.5-1.2-0.1-1.1c-0.8,0.2-1.7,0.5-2.5,0.7
					C49.7,30.6,49.8,31.7,50.3,31.5L50.3,31.5z"/>
				<path style="fill:#219D71;" d="M55.7,34.4c0.8-0.2,1.7-0.5,2.5-0.7c0.6-0.2,0.5-1.2-0.1-1.1c-0.8,0.2-1.7,0.5-2.5,0.7
					C55,33.5,55.1,34.6,55.7,34.4L55.7,34.4z"/>
				<path style="fill:#167551;" d="M54.1,32.7c0.6-0.2,1.3-0.4,1.9-0.5c0.4-0.1,0.4-1.2-0.1-1.1c-0.6,0.2-1.3,0.4-1.9,0.5
					C53.6,31.8,53.6,32.8,54.1,32.7L54.1,32.7z"/>
				<path style="fill:#167551;" d="M49.8,37.5c0.6-0.2,1.3-0.4,1.9-0.5c0.4-0.1,0.4-1.2-0.1-1.1c-0.6,0.2-1.3,0.4-1.9,0.5
					C49.3,36.5,49.4,37.6,49.8,37.5L49.8,37.5z"/>
				<path style="fill:#167551;" d="M53.2,37.3c0.6-0.2,1.3-0.4,1.9-0.5c0.4-0.1,0.4-1.2-0.1-1.1c-0.6,0.2-1.3,0.4-1.9,0.5
					C52.7,36.3,52.8,37.4,53.2,37.3L53.2,37.3z"/>
				<path style="fill:#167551;" d="M56.8,27.2c0.6-0.2,1.3-0.4,1.9-0.5c0.4-0.1,0.4-1.2-0.1-1.1c-0.6,0.2-1.3,0.4-1.9,0.5
					C56.3,26.3,56.3,27.3,56.8,27.2L56.8,27.2z"/>
				<path style="fill:#167551;" d="M51.9,34.3c0.6-0.2,1.3-0.4,1.9-0.5c0.4-0.1,0.4-1.2-0.1-1.1c-0.6,0.2-1.3,0.4-1.9,0.5
					C51.4,33.3,51.5,34.4,51.9,34.3L51.9,34.3z"/>
				<path style="fill:#167551;" d="M53.2,35.9c1-0.3,2-0.6,2.9-0.8c0.4-0.1,0.4-1.2-0.1-1.1c-1,0.3-2,0.6-2.9,0.8
					C52.7,34.9,52.8,36,53.2,35.9L53.2,35.9z"/>
				<path style="fill:#219D71;" d="M53.7,27.9c0.6-0.2,1.3-0.4,1.9-0.5c0.4-0.1,0.4-1.2-0.1-1.1c-0.6,0.2-1.3,0.4-1.9,0.5
					C53.2,26.9,53.3,28,53.7,27.9L53.7,27.9z"/>
				<path style="fill:#219D71;" d="M55.7,28.8c0.6-0.2,1.3-0.4,1.9-0.5c0.4-0.1,0.4-1.2-0.1-1.1c-0.6,0.2-1.3,0.4-1.9,0.5
					C55.2,27.8,55.2,28.9,55.7,28.8L55.7,28.8z"/>
				<path style="fill:#167551;" d="M52,29.9c1-0.3,2-0.6,2.9-0.8c0.4-0.1,0.4-1.2-0.1-1.1c-1,0.3-2,0.6-2.9,0.8
					C51.5,28.9,51.6,30,52,29.9L52,29.9z"/>
				<path style="fill:#167551;" d="M55.1,33.3c1-0.3,2-0.6,2.9-0.8c0.4-0.1,0.4-1.2-0.1-1.1c-1,0.3-2,0.6-2.9,0.8
					C54.6,32.3,54.6,33.4,55.1,33.3L55.1,33.3z"/>
			</g>
		</g>
		<g>
			<defs>
				<path id="SVGID_7_" d="M58.6,20.4c-1.4-0.7-3-1-4.8-0.7c-1.5,0.2-2.9,0.7-4.2,1.5c0.7,0.3,1.3,0.6,2,1c0.4,0.2,0.7,0.4,1.1,0.6
					c1.4,0.9,2.7,1.8,4.2,1.8l0,0c0.6-0.3,1.1-0.6,1.7-0.9V20.4z"/>
			</defs>
			<clipPath id="SVGID_8_">
				<use xlink:href="#SVGID_7_"  style="overflow:visible;"/>
			</clipPath>
			<g style="opacity:0.7;clip-path:url(#SVGID_8_);">
				<path style="fill:#167551;" d="M51.6,22.7c1-0.3,2-0.6,2.9-0.8c0.4-0.1,0.4-1.2-0.1-1.1c-1,0.3-2,0.6-2.9,0.8
					C51.1,21.7,51.2,22.8,51.6,22.7L51.6,22.7z"/>
				<path style="fill:#167551;" d="M56.3,20.5c1-0.3,2-0.6,2.9-0.8c0.4-0.1,0.4-1.2-0.1-1.1c-1,0.3-2,0.6-2.9,0.8
					C55.8,19.5,55.9,20.6,56.3,20.5L56.3,20.5z"/>
				<path style="fill:#167551;" d="M56.9,22.7c1-0.3,2-0.6,2.9-0.8c0.4-0.1,0.4-1.2-0.1-1.1c-1,0.3-2,0.6-2.9,0.8
					C56.4,21.7,56.4,22.8,56.9,22.7L56.9,22.7z"/>
				<path style="fill:#219D71;" d="M55.1,22.6c0.8-0.2,1.7-0.5,2.5-0.7c0.6-0.2,0.5-1.2-0.1-1.1c-0.8,0.2-1.7,0.5-2.5,0.7
					C54.5,21.7,54.5,22.8,55.1,22.6L55.1,22.6z"/>
				<path style="fill:#219D71;" d="M52.5,24.1c0.8-0.2,1.7-0.5,2.5-0.7c0.6-0.2,0.5-1.2-0.1-1.1c-0.8,0.2-1.7,0.5-2.5,0.7
					C51.8,23.2,51.9,24.2,52.5,24.1L52.5,24.1z"/>
				<path style="fill:#219D71;" d="M49.4,22.4c0.8-0.2,1.7-0.5,2.5-0.7c0.6-0.2,0.5-1.2-0.1-1.1c-0.8,0.2-1.7,0.5-2.5,0.7
					C48.8,21.5,48.8,22.5,49.4,22.4L49.4,22.4z"/>
				<path style="fill:#167551;" d="M53,20.8c0.6-0.2,1.3-0.4,1.9-0.5c0.4-0.1,0.4-1.2-0.1-1.1c-0.6,0.2-1.3,0.4-1.9,0.5
					C52.5,19.8,52.6,20.9,53,20.8L53,20.8z"/>
				<path style="fill:#2DC597;" d="M53.6,21.5c0.6-0.2,1.1-0.3,1.7-0.5c0.4-0.1,0.4-1.2-0.1-1.1c-0.6,0.2-1.1,0.3-1.7,0.5
					C53.1,20.6,53.1,21.6,53.6,21.5L53.6,21.5z"/>
				<path style="fill:#2DC597;" d="M53.4,24.6c0.6-0.2,1.1-0.3,1.7-0.5c0.4-0.1,0.4-1.2-0.1-1.1c-0.6,0.2-1.1,0.3-1.7,0.5
					C52.9,23.6,53,24.7,53.4,24.6L53.4,24.6z"/>
				<path style="fill:#219D71;" d="M54.7,24.7c0.8-0.2,1.7-0.5,2.5-0.7c0.6-0.2,0.5-1.2-0.1-1.1c-0.8,0.2-1.7,0.5-2.5,0.7
					C54,23.7,54.1,24.8,54.7,24.7L54.7,24.7z"/>
				<path style="fill:#167551;" d="M52.1,25.3c1-0.3,2-0.6,2.9-0.8c0.4-0.1,0.4-1.2-0.1-1.1c-1,0.3-2,0.6-2.9,0.8
					C51.6,24.4,51.6,25.4,52.1,25.3L52.1,25.3z"/>
				<path style="fill:#167551;" d="M56.2,25.2c0.6-0.2,1.3-0.4,1.9-0.5c0.4-0.1,0.4-1.2-0.1-1.1c-0.6,0.2-1.3,0.4-1.9,0.5
					C55.7,24.2,55.8,25.3,56.2,25.2L56.2,25.2z"/>
			</g>
		</g>
		<g>
			<defs>
				<path id="SVGID_9_" d="M58.6,34.4v-9.7c-0.2,0.1-0.4,0.2-0.6,0.3c0.4,3.2,0.5,6.4,0.3,9.6C58.5,34.5,58.5,34.5,58.6,34.4z"/>
			</defs>
			<clipPath id="SVGID_10_">
				<use xlink:href="#SVGID_9_"  style="overflow:visible;"/>
			</clipPath>
			<g style="opacity:0.7;clip-path:url(#SVGID_10_);">
				<path style="fill:#219D71;" d="M58.2,32.7c0.8-0.2,1.7-0.5,2.5-0.7c0.6-0.2,0.5-1.2-0.1-1.1c-0.8,0.2-1.7,0.5-2.5,0.7
					C57.5,31.8,57.6,32.9,58.2,32.7L58.2,32.7z"/>
				<path style="fill:#219D71;" d="M58.8,29c0.8-0.2,1.7-0.5,2.5-0.7c0.6-0.2,0.5-1.2-0.1-1.1c-0.8,0.2-1.7,0.5-2.5,0.7
					C58.2,28.1,58.2,29.2,58.8,29L58.8,29z"/>
				<path style="fill:#219D71;" d="M55.6,27c0.8-0.2,1.7-0.5,2.5-0.7c0.6-0.2,0.5-1.2-0.1-1.1c-0.8,0.2-1.7,0.5-2.5,0.7
					C55,26.1,55,27.2,55.6,27L55.6,27z"/>
				<path style="fill:#167551;" d="M58,27.7c0.6-0.2,1.3-0.4,1.9-0.5c0.4-0.1,0.4-1.2-0.1-1.1c-0.6,0.2-1.3,0.4-1.9,0.5
					C57.5,26.7,57.6,27.8,58,27.7L58,27.7z"/>
				<path style="fill:#167551;" d="M58.5,31.6c0.6-0.2,1.3-0.4,1.9-0.5c0.4-0.1,0.4-1.2-0.1-1.1c-0.6,0.2-1.3,0.4-1.9,0.5
					C58,30.7,58,31.7,58.5,31.6L58.5,31.6z"/>
			</g>
		</g>
		<g>
			<defs>
				<path id="SVGID_11_" d="M49.6,36.1c0.4-0.9,0.6-1.7,0.7-2.4c0.1-1-0.3-1.9-0.6-2.8c-0.3,0.2-0.5,0.5-0.8,0.7L48.3,32
					c-1.2,1.2-2.4,2.4-4,3c-0.9,0.4-1.9,0.6-2.9,0.8l-5.2,1c4.4,1.5,9.2,1.3,12.6,0.9C49.1,37.2,49.4,36.6,49.6,36.1z"/>
			</defs>
			<clipPath id="SVGID_12_">
				<use xlink:href="#SVGID_11_"  style="overflow:visible;"/>
			</clipPath>
			<g style="opacity:0.7;clip-path:url(#SVGID_12_);">
				<path style="fill:#219D71;" d="M48.4,34.5c0.6-0.2,1.3-0.4,1.9-0.5c0.4-0.1,0.4-1.2-0.1-1.1c-0.6,0.2-1.3,0.4-1.9,0.5
					C47.8,33.6,47.9,34.7,48.4,34.5L48.4,34.5z"/>
				<path style="fill:#219D71;" d="M47.8,33.4c0.6-0.2,1.3-0.4,1.9-0.5c0.4-0.1,0.4-1.2-0.1-1.1c-0.6,0.2-1.3,0.4-1.9,0.5
					C47.3,32.4,47.3,33.5,47.8,33.4L47.8,33.4z"/>
				<path style="fill:#219D71;" d="M43.6,38.3c0.6-0.2,1.3-0.4,1.9-0.5c0.4-0.1,0.4-1.2-0.1-1.1c-0.6,0.2-1.3,0.4-1.9,0.5
					C43.1,37.3,43.1,38.4,43.6,38.3L43.6,38.3z"/>
				<path style="fill:#219D71;" d="M47.4,36.6c0.6-0.2,1.3-0.4,1.9-0.5c0.4-0.1,0.4-1.2-0.1-1.1c-0.6,0.2-1.3,0.4-1.9,0.5
					C46.9,35.7,46.9,36.8,47.4,36.6L47.4,36.6z"/>
				<path style="fill:#219D71;" d="M48.5,37.4c0.6-0.2,1.3-0.4,1.9-0.5c0.4-0.1,0.4-1.2-0.1-1.1c-0.6,0.2-1.3,0.4-1.9,0.5
					C48,36.4,48,37.5,48.5,37.4L48.5,37.4z"/>
				<path style="fill:#219D71;" d="M36.5,37.3c0.6-0.2,1.3-0.4,1.9-0.5c0.4-0.1,0.4-1.2-0.1-1.1c-0.6,0.2-1.3,0.4-1.9,0.5
					C36,36.4,36,37.4,36.5,37.3L36.5,37.3z"/>
				<path style="fill:#219D71;" d="M47.1,38.6c0.6-0.2,1.3-0.4,1.9-0.5c0.4-0.1,0.4-1.2-0.1-1.1c-0.6,0.2-1.3,0.4-1.9,0.5
					C46.6,37.6,46.6,38.7,47.1,38.6L47.1,38.6z"/>
				<path style="fill:#219D71;" d="M40.8,38.1c0.6-0.2,1.3-0.4,1.9-0.5c0.4-0.1,0.4-1.2-0.1-1.1c-0.6,0.2-1.3,0.4-1.9,0.5
					C40.3,37.2,40.4,38.3,40.8,38.1L40.8,38.1z"/>
				<path style="fill:#219D71;" d="M40.2,36.7c0.6-0.2,1.3-0.4,1.9-0.5c0.4-0.1,0.4-1.2-0.1-1.1c-0.6,0.2-1.3,0.4-1.9,0.5
					C39.7,35.7,39.8,36.8,40.2,36.7L40.2,36.7z"/>
				<path style="fill:#219D71;" d="M45.4,35.7c0.8-0.2,1.7-0.5,2.5-0.7c0.6-0.2,0.5-1.2-0.1-1.1c-0.8,0.2-1.7,0.5-2.5,0.7
					C44.8,34.8,44.9,35.9,45.4,35.7L45.4,35.7z"/>
				<path style="fill:#167551;" d="M39.9,38c0.6-0.2,1.3-0.4,1.9-0.5c0.4-0.1,0.4-1.2-0.1-1.1c-0.6,0.2-1.3,0.4-1.9,0.5
					C39.4,37.1,39.5,38.1,39.9,38L39.9,38z"/>
				<path style="fill:#167551;" d="M44.8,38.7c0.6-0.2,1.3-0.4,1.9-0.5c0.4-0.1,0.4-1.2-0.1-1.1c-0.6,0.2-1.3,0.4-1.9,0.5
					C44.3,37.7,44.4,38.8,44.8,38.7L44.8,38.7z"/>
				<path style="fill:#167551;" d="M42.7,36.2c0.6-0.2,1.3-0.4,1.9-0.5c0.4-0.1,0.4-1.2-0.1-1.1c-0.6,0.2-1.3,0.4-1.9,0.5
					C42.2,35.2,42.3,36.3,42.7,36.2L42.7,36.2z"/>
				<path style="fill:#167551;" d="M49.1,36.3c0.6-0.2,1.3-0.4,1.9-0.5c0.4-0.1,0.4-1.2-0.1-1.1c-0.6,0.2-1.3,0.4-1.9,0.5
					C48.6,35.4,48.6,36.4,49.1,36.3L49.1,36.3z"/>
				<path style="fill:#167551;" d="M45.2,36.8c0.6-0.2,1.3-0.4,1.9-0.5c0.4-0.1,0.4-1.2-0.1-1.1c-0.6,0.2-1.3,0.4-1.9,0.5
					C44.7,35.8,44.8,36.9,45.2,36.8L45.2,36.8z"/>
				<path style="fill:#167551;" d="M37.4,38c0.6-0.2,1.3-0.4,1.9-0.5c0.4-0.1,0.4-1.2-0.1-1.1c-0.6,0.2-1.3,0.4-1.9,0.5
					C36.9,37.1,37,38.1,37.4,38L37.4,38z"/>
				<path style="fill:#167551;" d="M47.5,34.4c0.6-0.2,1.3-0.4,1.9-0.5c0.4-0.1,0.4-1.2-0.1-1.1c-0.6,0.2-1.3,0.4-1.9,0.5
					C47,33.5,47,34.5,47.5,34.4L47.5,34.4z"/>
			</g>
		</g>
		<g>
			<defs>
				<path id="SVGID_13_" d="M41.3,34.9c0.5-0.1,1-0.2,1.5-0.3c-0.4-0.1-0.7-0.2-1.1-0.4c-0.5-0.3-1-0.6-1.5-0.9
					c-0.4-0.2-0.7-0.5-1.1-0.7c-1-0.6-2-0.9-3.1-1.1c-3.8,1.6-6,1.2-6,1.2c1.3,1.5,2.9,2.6,4.7,3.4L41.3,34.9z"/>
			</defs>
			<clipPath id="SVGID_14_">
				<use xlink:href="#SVGID_13_"  style="overflow:visible;"/>
			</clipPath>
			<g style="opacity:0.7;clip-path:url(#SVGID_14_);">
				<path style="fill:#167551;" d="M34.7,32.9c1-0.3,2-0.6,2.9-0.8C38,32,38,30.9,37.5,31c-1,0.3-2,0.6-2.9,0.8
					C34.1,32,34.2,33.1,34.7,32.9L34.7,32.9z"/>
				<path style="fill:#2DC597;" d="M34,33.8c0.6-0.2,1.1-0.3,1.7-0.5c0.4-0.1,0.4-1.2-0.1-1.1c-0.6,0.2-1.1,0.3-1.7,0.5
					C33.5,32.9,33.6,34,34,33.8L34,33.8z"/>
				<path style="fill:#219D71;" d="M31.9,35.3c0.6-0.2,1.3-0.4,1.9-0.5c0.4-0.1,0.4-1.2-0.1-1.1c-0.6,0.2-1.3,0.4-1.9,0.5
					C31.4,34.4,31.4,35.4,31.9,35.3L31.9,35.3z"/>
				<path style="fill:#219D71;" d="M31.6,33.4c0.6-0.2,1.3-0.4,1.9-0.5c0.4-0.1,0.4-1.2-0.1-1.1c-0.6,0.2-1.3,0.4-1.9,0.5
					C31.1,32.5,31.2,33.6,31.6,33.4L31.6,33.4z"/>
				<path style="fill:#219D71;" d="M40.5,35.6c0.6-0.2,1.3-0.4,1.9-0.5c0.4-0.1,0.4-1.2-0.1-1.1c-0.6,0.2-1.3,0.4-1.9,0.5
					C40,34.7,40,35.8,40.5,35.6L40.5,35.6z"/>
				<path style="fill:#219D71;" d="M35.4,34.5c0.8-0.2,1.7-0.5,2.5-0.7c0.6-0.2,0.5-1.2-0.1-1.1c-0.8,0.2-1.7,0.5-2.5,0.7
					C34.8,33.6,34.9,34.6,35.4,34.5L35.4,34.5z"/>
				<path style="fill:#219D71;" d="M38.7,35.2c0.8-0.2,1.7-0.5,2.5-0.7c0.6-0.2,0.5-1.2-0.1-1.1c-0.8,0.2-1.7,0.5-2.5,0.7
					C38,34.3,38.1,35.4,38.7,35.2L38.7,35.2z"/>
				<path style="fill:#219D71;" d="M35.5,36.2c0.8-0.2,1.7-0.5,2.5-0.7c0.6-0.2,0.5-1.2-0.1-1.1c-0.8,0.2-1.7,0.5-2.5,0.7
					C34.8,35.3,34.9,36.4,35.5,36.2L35.5,36.2z"/>
				<path style="fill:#167551;" d="M36.8,35.3c0.6-0.2,1.3-0.4,1.9-0.5c0.4-0.1,0.4-1.2-0.1-1.1c-0.6,0.2-1.3,0.4-1.9,0.5
					C36.3,34.4,36.3,35.5,36.8,35.3L36.8,35.3z"/>
				<path style="fill:#167551;" d="M33.9,36.1c0.6-0.2,1.3-0.4,1.9-0.5c0.4-0.1,0.4-1.2-0.1-1.1c-0.6,0.2-1.3,0.4-1.9,0.5
					C33.4,35.1,33.4,36.2,33.9,36.1L33.9,36.1z"/>
				<path style="fill:#219D71;" d="M33.8,35.9c0.6-0.2,1.3-0.4,1.9-0.5c0.4-0.1,0.4-1.2-0.1-1.1c-0.6,0.2-1.3,0.4-1.9,0.5
					C33.3,34.9,33.4,36,33.8,35.9L33.8,35.9z"/>
				<path style="fill:#167551;" d="M32.7,34.5c0.6-0.2,1.3-0.4,1.9-0.5c0.4-0.1,0.4-1.2-0.1-1.1c-0.6,0.2-1.3,0.4-1.9,0.5
					C32.2,33.5,32.2,34.6,32.7,34.5L32.7,34.5z"/>
				<path style="fill:#167551;" d="M39.3,33.7c0.6-0.2,1.3-0.4,1.9-0.5c0.4-0.1,0.4-1.2-0.1-1.1c-0.6,0.2-1.3,0.4-1.9,0.5
					C38.8,32.7,38.9,33.8,39.3,33.7L39.3,33.7z"/>
			</g>
		</g>
		<g>
			<defs>
				<path id="SVGID_15_" d="M49.8,29.5c1.8-1.6,3.9-3,6-4.3c-1.2-0.3-2.4-1-3.5-1.7c-0.3-0.2-0.7-0.4-1-0.6
					c-0.8-0.4-1.6-0.8-2.4-1.2c-0.4,0.3-0.9,0.6-1.2,1l0,0c-1.4,1.5-2.7,2.7-3.9,3.8c1.5,0.5,3,1.1,4.3,1.9c0.5,0.3,1,0.6,1.5,0.9
					L49.8,29.5z"/>
			</defs>
			<clipPath id="SVGID_16_">
				<use xlink:href="#SVGID_15_"  style="overflow:visible;"/>
			</clipPath>
			<g style="opacity:0.7;clip-path:url(#SVGID_16_);">
				<path style="fill:#167551;" d="M46.8,28.9c1-0.3,2-0.6,2.9-0.8c0.4-0.1,0.4-1.2-0.1-1.1c-1,0.3-2,0.6-2.9,0.8
					C46.3,28,46.3,29,46.8,28.9L46.8,28.9z"/>
				<path style="fill:#167551;" d="M50.6,28.5c1-0.3,2-0.6,2.9-0.8c0.4-0.1,0.4-1.2-0.1-1.1c-1,0.3-2,0.6-2.9,0.8
					C50.1,27.5,50.2,28.6,50.6,28.5L50.6,28.5z"/>
				<path style="fill:#167551;" d="M52.3,24.9c1-0.3,2-0.6,2.9-0.8c0.4-0.1,0.4-1.2-0.1-1.1c-1,0.3-2,0.6-2.9,0.8
					C51.7,23.9,51.8,25,52.3,24.9L52.3,24.9z"/>
				<path style="fill:#167551;" d="M47.6,26.2c1-0.3,2-0.6,2.9-0.8c0.4-0.1,0.4-1.2-0.1-1.1c-1,0.3-2,0.6-2.9,0.8
					C47.1,25.3,47.1,26.4,47.6,26.2L47.6,26.2z"/>
				<path style="fill:#167551;" d="M44.6,27.8c1-0.3,2-0.6,2.9-0.8c0.4-0.1,0.4-1.2-0.1-1.1c-1,0.3-2,0.6-2.9,0.8
					C44.1,26.8,44.1,27.9,44.6,27.8L44.6,27.8z"/>
				<path style="fill:#167551;" d="M52.1,26.7c1-0.3,2-0.6,2.9-0.8c0.4-0.1,0.4-1.2-0.1-1.1c-1,0.3-2,0.6-2.9,0.8
					C51.6,25.8,51.7,26.9,52.1,26.7L52.1,26.7z"/>
				<path style="fill:#167551;" d="M48.2,23.7c0.6-0.2,1.3-0.4,1.9-0.5c0.4-0.1,0.4-1.2-0.1-1.1c-0.6,0.2-1.3,0.4-1.9,0.5
					C47.7,22.7,47.8,23.8,48.2,23.7L48.2,23.7z"/>
				<path style="fill:#167551;" d="M48.1,25.1c0.6-0.2,1.3-0.4,1.9-0.5c0.4-0.1,0.4-1.2-0.1-1.1c-0.6,0.2-1.3,0.4-1.9,0.5
					C47.6,24.2,47.6,25.3,48.1,25.1L48.1,25.1z"/>
				<path style="fill:#167551;" d="M46.1,24.6c0.6-0.2,1.3-0.4,1.9-0.5c0.4-0.1,0.4-1.2-0.1-1.1c-0.6,0.2-1.3,0.4-1.9,0.5
					C45.6,23.6,45.7,24.7,46.1,24.6L46.1,24.6z"/>
				<path style="fill:#2DC597;" d="M49.1,24.2c0.6-0.2,1.1-0.3,1.7-0.5c0.4-0.1,0.4-1.2-0.1-1.1c-0.6,0.2-1.1,0.3-1.7,0.5
					C48.6,23.3,48.6,24.4,49.1,24.2L49.1,24.2z"/>
				<path style="fill:#219D71;" d="M46,26.1c0.6-0.2,1.3-0.4,1.9-0.5c0.4-0.1,0.4-1.2-0.1-1.1c-0.6,0.2-1.3,0.4-1.9,0.5
					C45.5,25.2,45.6,26.2,46,26.1L46,26.1z"/>
				<path style="fill:#219D71;" d="M43.6,27.4c0.6-0.2,1.3-0.4,1.9-0.5c0.4-0.1,0.4-1.2-0.1-1.1c-0.6,0.2-1.3,0.4-1.9,0.5
					C43.1,26.4,43.1,27.5,43.6,27.4L43.6,27.4z"/>
				<path style="fill:#219D71;" d="M50.2,26.9c0.6-0.2,1.3-0.4,1.9-0.5c0.4-0.1,0.4-1.2-0.1-1.1c-0.6,0.2-1.3,0.4-1.9,0.5
					C49.7,25.9,49.8,27,50.2,26.9L50.2,26.9z"/>
				<path style="fill:#219D71;" d="M49,29.8c0.6-0.2,1.3-0.4,1.9-0.5c0.4-0.1,0.4-1.2-0.1-1.1c-0.6,0.2-1.3,0.4-1.9,0.5
					C48.5,28.8,48.5,29.9,49,29.8L49,29.8z"/>
				<path style="fill:#219D71;" d="M49.4,25c0.6-0.2,1.3-0.4,1.9-0.5c0.4-0.1,0.4-1.2-0.1-1.1c-0.6,0.2-1.3,0.4-1.9,0.5
					C48.9,24.1,49,25.2,49.4,25L49.4,25z"/>
			</g>
		</g>
		<path style="fill:#2DC597;" d="M46.8,26.1c0.5-0.1,1-0.3,1.5-0.4c0.4-0.1,0.3-1.1-0.1-1c-0.5,0.1-1,0.3-1.5,0.4
			C46.3,25.2,46.4,26.2,46.8,26.1L46.8,26.1z"/>
		<path style="fill:#2DC597;" d="M53.4,31.6c0.5-0.1,1-0.3,1.5-0.4c0.4-0.1,0.3-1.1-0.1-1c-0.5,0.1-1,0.3-1.5,0.4
			C53,30.8,53,31.7,53.4,31.6L53.4,31.6z"/>
		<path style="fill:#2DC597;" d="M55.2,32.6c0.5-0.1,1-0.3,1.5-0.4c0.4-0.1,0.3-1.1-0.1-1c-0.5,0.1-1,0.3-1.5,0.4
			C54.8,31.7,54.8,32.7,55.2,32.6L55.2,32.6z"/>
		<path style="fill:#2DC597;" d="M53.8,36c0.5-0.1,1-0.3,1.5-0.4c0.4-0.1,0.3-1.1-0.1-1c-0.5,0.1-1,0.3-1.5,0.4
			C53.3,35.2,53.4,36.2,53.8,36L53.8,36z"/>
		<path style="fill:#2DC597;" d="M46.1,36c0.5-0.1,1-0.3,1.5-0.4c0.4-0.1,0.3-1.1-0.1-1c-0.5,0.1-1,0.3-1.5,0.4
			C45.6,35.2,45.7,36.2,46.1,36L46.1,36z"/>
		<path style="fill:#2DC597;" d="M35.3,36c0.5-0.1,1-0.3,1.5-0.4c0.4-0.1,0.3-1.1-0.1-1c-0.5,0.1-1,0.3-1.5,0.4
			C34.8,35.1,34.9,36.1,35.3,36L35.3,36z"/>
		<path style="fill:#2DC597;" d="M32.9,35.4c0.5-0.1,1-0.3,1.5-0.4c0.4-0.1,0.3-1.1-0.1-1c-0.5,0.1-1,0.3-1.5,0.4
			C32.4,34.5,32.5,35.5,32.9,35.4L32.9,35.4z"/>
	</g>
	<path style="fill:#28211E;" d="M63,25.8v0.4l2.6-0.5v0c0-0.6-0.6-1.1-1.2-1l-0.7,0.1C63.4,25,63,25.4,63,25.8z"/>
	<polygon style="fill:#3A3A3A;" points="23.5,41.4 23.5,48.3 94,35.4 94,28.5 	"/>
	<polygon points="81.3,42.3 78.3,40.8 78.3,37.4 80.3,37.5 	"/>
	<path d="M76.8,38.6c-0.4-4.2,2.8-8.3,6.9-9.1c4.2-0.8,7.8,2,8.2,6.2"/>
	
		<ellipse transform="matrix(0.7489 -0.6627 0.6627 0.7489 -3.0201 65.1663)" style="fill:#28211E;" cx="84.5" cy="36.6" rx="6.7" ry="6"/>
	
		<ellipse transform="matrix(0.7489 -0.6627 0.6627 0.7489 -3.0201 65.1663)" style="fill:#3A3A3A;" cx="84.5" cy="36.6" rx="4" ry="3.6"/>
	
		<ellipse transform="matrix(0.7489 -0.6627 0.6627 0.7489 -3.0201 65.1663)" style="fill:#4C4C4C;" cx="84.5" cy="36.6" rx="1.8" ry="1.7"/>
	<path d="M31.9,46.8c-0.4-4.2,2.8-8.3,6.9-9.1c4.2-0.8,7.8,2,8.2,6.2"/>
	<polygon style="fill:#28211E;" points="23.5,41.4 23.5,48.3 7.9,40.6 7.9,33.7 	"/>
	
		<ellipse transform="matrix(0.7489 -0.6627 0.6627 0.7489 -19.7324 37.5174)" style="fill:#28211E;" cx="39.6" cy="44.8" rx="6.7" ry="6"/>
	
		<ellipse transform="matrix(0.7489 -0.6627 0.6627 0.7489 -19.7324 37.5174)" style="fill:#3A3A3A;" cx="39.6" cy="44.8" rx="4" ry="3.6"/>
	
		<ellipse transform="matrix(0.7489 -0.6627 0.6627 0.7489 -19.7324 37.5174)" style="fill:#4C4C4C;" cx="39.6" cy="44.8" rx="1.8" ry="1.7"/>
	<g id="Logo_9_">
		<g>
			<g>
				<g>
					<polygon style="fill:#D40511;" points="26,19.6 28.5,19.1 28.4,19.4 26,19.8 					"/>
					<polygon style="fill:#D40511;" points="26,19.3 28.8,18.8 28.6,19 26,19.5 					"/>
					<polygon style="fill:#D40511;" points="26,20 28.3,19.5 28.1,19.7 26,20.1 					"/>
				</g>
				<g>
					<polygon style="fill:#D40511;" points="44.5,16.3 42,16.8 42.2,16.6 44.5,16.1 					"/>
					<polygon style="fill:#D40511;" points="44.5,16.6 41.8,17.1 41.9,16.9 44.5,16.4 					"/>
					<polygon style="fill:#D40511;" points="42.4,16.2 44.5,15.8 44.5,16 42.3,16.4 					"/>
				</g>
			</g>
			<g>
				<path style="fill:#D40511;" d="M28.4,19.7l1.2-1.8c0,0,1.3-0.2,1.5-0.3c0.2,0,0.2,0,0.1,0.1c-0.1,0.1-0.2,0.3-0.3,0.5
					c0,0.1-0.1,0.2,0.1,0.1c0.3-0.1,2-0.4,2-0.4c-0.2,0.2-0.7,1-1.7,1.2C30.5,19.3,28.4,19.7,28.4,19.7L28.4,19.7z"/>
				<polygon style="fill:#D40511;" points="35.2,17.5 34.6,18.5 32.9,18.8 33.5,17.9 				"/>
				<path style="fill:#D40511;" d="M37.7,17.1L37,18l-1.7,0.3l0.6-1L37.7,17.1L37.7,17.1z"/>
				<path style="fill:#D40511;" d="M38.2,17c0,0-0.1,0.2-0.2,0.3c-0.2,0.3,0,0.6,0.7,0.5c0.8-0.2,2.7-0.5,2.7-0.5l0.6-1L38.2,17
					L38.2,17z"/>
			</g>
			<g>
				<path style="fill:#D40511;" d="M29.3,17l-0.6,0.9c0,0,3.1-0.6,3.2-0.6c0.2,0,0.2,0,0.1,0.1c-0.1,0.1-0.2,0.3-0.3,0.5
					c0,0.1-0.1,0.2,0.1,0.1c0.3-0.1,1.3-0.2,1.3-0.2s0.2-0.3,0.4-0.6c0.2-0.4,0-1-0.8-0.8C31.9,16.5,29.3,17,29.3,17L29.3,17z"/>
				<polygon style="fill:#D40511;" points="37.8,16.9 33.7,17.6 34.8,15.9 36.5,15.6 35.9,16.6 36.6,16.4 37.3,15.5 39,15.1 				"/>
				<path style="fill:#D40511;" d="M41.3,14.7l-1.1,1.7l-1.8,0.3l1.1-1.7L41.3,14.7L41.3,14.7z"/>
			</g>
		</g>
	</g>
	<polygon style="fill:#28211E;" points="59.4,34.8 59.4,41.7 58.6,41.9 58.6,34.3 	"/>
	<g>
		<polygon points="69.5,26.8 69.5,26.4 78.8,24.7 78.8,25.1 		"/>
	</g>
	<g>
		<polygon points="69.5,28.4 69.5,28.1 73.9,27.2 73.9,27.6 		"/>
	</g>
	<path style="fill:#2DC597;" d="M42.2,30.6c0.6-0.2,1.1-0.3,1.7-0.5c0.4-0.1,0.4-1.2-0.1-1.1c-0.6,0.2-1.1,0.3-1.7,0.5
		C41.7,29.7,41.8,30.7,42.2,30.6L42.2,30.6z"/>
	<path style="fill:#219D71;" d="M38.6,30.9c0.6-0.2,1.3-0.4,1.9-0.5c0.4-0.1,0.4-1.2-0.1-1.1c-0.6,0.2-1.3,0.4-1.9,0.5
		C38.1,30,38.2,31,38.6,30.9L38.6,30.9z"/>
	<path style="fill:#219D71;" d="M31.4,34.6c0.6-0.2,1.3-0.4,1.9-0.5c0.4-0.1,0.4-1.2-0.1-1.1c-0.6,0.2-1.3,0.4-1.9,0.5
		C30.9,33.6,31,34.7,31.4,34.6L31.4,34.6z"/>
	<path style="fill:#219D71;" d="M45.8,25.6c0.6-0.2,1.3-0.4,1.9-0.5c0.4-0.1,0.4-1.2-0.1-1.1c-0.6,0.2-1.3,0.4-1.9,0.5
		C45.3,24.7,45.3,25.7,45.8,25.6L45.8,25.6z"/>
</g>
</svg>
