<?xml version="1.0" encoding="utf-8"?>
<!-- Generator: Adobe Illustrator 27.0.1, SVG Export Plug-In . SVG Version: 6.00 Build 0)  -->
<svg version="1.1" id="Laag_1" xmlns="http://www.w3.org/2000/svg" xmlns:xlink="http://www.w3.org/1999/xlink" x="0px" y="0px"
	 viewBox="0 0 700 700" style="enable-background:new 0 0 700 700;" xml:space="preserve">
<style type="text/css">
	.st0{fill:#C6313C;}
	.st1{fill:#F9F9F9;}
</style>
<ellipse class="st0" cx="361.5" cy="355.9" rx="136.5" ry="140"/>
<path class="st0" d="M136,356.4c0,120.1,97,217.5,216.6,217.5c108.6,0,198.2-80.3,213.9-185H410v53.8H353v-53.8h-37.9
	c-62.7,0-90.2-30.7-90.2-83c0-25.1,1.8-38.4,2.7-44.6h49.7v35.7c0,22.2,21,30,44.7,30h31.1v-65.2l56.9,8.8v56.3H567
	c-14.4-106.2-104.8-188.2-214.4-188.2C233,138.9,136,236.3,136,356.4z"/>
<path class="st1" d="M350,127.1c-123.7,0-224,100.3-224,224c0,112.3,82.7,205,190.5,221.2V410.5h-55.4v-58.9h55.4v-39.2
	c0-64.9,31.6-93.3,85.5-93.3c25.8,0,39.5,1.9,45.9,2.8v51.4h-36.8c-22.9,0-30.9,21.7-30.9,46.2v32.2h67.1l-9.1,58.9h-58v162.3
	C489.6,558,574,464.5,574,351.1C574,227.4,473.7,127.1,350,127.1z"/>
</svg>
