<?xml version="1.0" encoding="utf-8"?>
<!-- Generator: Adobe Illustrator 27.0.1, SVG Export Plug-In . SVG Version: 6.00 Build 0)  -->
<svg version="1.1" id="Laag_1" xmlns="http://www.w3.org/2000/svg" xmlns:xlink="http://www.w3.org/1999/xlink" x="0px" y="0px"
	 viewBox="0 0 700 700" style="enable-background:new 0 0 700 700;" xml:space="preserve">
<style type="text/css">
	.st0{fill:#F7F7F7;}
	.st1{fill:#C6313C;}
</style>
<path class="st0" d="M350,126c-123.7,0-224,100.3-224,224s100.3,224,224,224s224-100.3,224-224S473.7,126,350,126z"/>
<path class="st1" d="M312.4,259.7c-29,0-52.7,23.6-52.7,52.7v75.3c0,29,23.6,52.7,52.7,52.7h75.3c29,0,52.7-23.6,52.7-52.7v-75.3
	c0-29-23.6-52.7-52.7-52.7H312.4z M402.7,289.8c4.2,0,7.5,3.4,7.5,7.5c0,4.2-3.4,7.5-7.5,7.5c-4.2,0-7.5-3.4-7.5-7.5
	C395.2,293.2,398.5,289.8,402.7,289.8z M350,304.8c24.9,0,45.2,20.3,45.2,45.2s-20.3,45.2-45.2,45.2s-45.2-20.3-45.2-45.2
	S325.1,304.8,350,304.8z M350,319.9c-16.6,0-30.1,13.5-30.1,30.1s13.5,30.1,30.1,30.1s30.1-13.5,30.1-30.1S366.6,319.9,350,319.9z"
	/>
</svg>
