<svg xmlns="http://www.w3.org/2000/svg" width="267" height="157" style="width:100%;height:100%;transform:translate3d(0,0,0);content-visibility:visible"><defs><linearGradient id="b" x1="-20.25" x2="-4.75" y1="2.499" y2="-29.251" gradientUnits="userSpaceOnUse" spreadMethod="pad"><stop offset="0%" stop-color="#FFF" stop-opacity="0"/><stop offset="50%" stop-color="gray" stop-opacity=".5"/><stop offset="100%"/></linearGradient><linearGradient id="c" x1="-18.75" x2="-6.249" y1="-.251" y2="-25.5" gradientUnits="userSpaceOnUse" spreadMethod="pad"><stop offset="0%" stop-color="#9E7549" stop-opacity="0"/><stop offset="50%" stop-color="#4F3A24" stop-opacity=".5"/><stop offset="100%"/></linearGradient><linearGradient id="d" x1="-6.001" x2="22.999" y1="20.998" y2="-40.752" gradientUnits="userSpaceOnUse" spreadMethod="pad"><stop offset="0%" stop-color="#FCCE09" stop-opacity="0"/><stop offset="50%" stop-color="#7E6705" stop-opacity=".5"/><stop offset="100%"/></linearGradient><linearGradient id="e" x1="-20" x2="-6.499" y1="3.749" y2="-27.25" gradientUnits="userSpaceOnUse" spreadMethod="pad"><stop offset="0%" stop-color="#C39000" stop-opacity="0"/><stop offset="50%" stop-color="#614800" stop-opacity=".5"/><stop offset="100%"/></linearGradient><clipPath id="a"><path d="M0 0h267v157H0z"/></clipPath></defs><g clip-path="url(#a)"><g style="display:block"><path fill="#BB9260" d="m34.858 105.479 83.702 41.602v2.861l147.054-26.349v-2.86L181.913 79.13 34.858 105.479z"/><path fill="url(#b)" d="m24.264 23.885 34.516-6.168-83.702-41.601-33.858 6.099 83.044 41.67z" transform="translate(59.78 132.224)"/><path fill="#9E7548" d="m263.315 119.552-4.363-2.131-147.432 26.16-3.804-1.89 147.432-26.16-4.308-2.141-147.43 26.16-3.804-1.89 147.431-26.161-4.308-2.14-147.431 26.16-3.804-1.89 147.432-26.161-4.304-2.142-147.434 26.162-3.804-1.891 147.427-26.162-4.306-2.141-147.429 26.162-3.806-1.892 147.431-26.16-4.308-2.141-147.431 26.16-3.804-1.89 147.433-26.161-4.304-2.14-147.435 26.16-3.804-1.89 147.431-26.161-4.299-2.142-147.44 26.162-3.804-1.89L198.369 87.31l-4.306-2.141-147.433 26.16-3.808-1.892 147.431-26.16-4.306-2.141-147.433 26.16-3.657-1.817v2.861l52.355 26.022.004.026.037-.007 8.013 3.983.011.064.086-.016 7.957 3.955.019.101.136-.024 15.084 7.498v-2.862l-2.733-1.358 147.489-26.17z"/><path fill="url(#c)" d="m1.564 10.993 30.142-5.469-33.093-16.518-30.32 5.381L1.564 10.993z" transform="translate(102.79 120.979)"/><path fill="#C39000" d="M134.486 61.898v64.605l-33.223-16.512V45.385l33.223 16.513z"/><path fill="#FBCE08" d="M134.486 61.898v64.604l58.37-10.458V51.44l-58.37 10.458z"/><path fill="#FFF" d="M162.716 100.084v14.12l24.376-4.377V95.708l-24.376 4.376z"/><path d="M1 3.5h264.614v152.609H1V3.5zm0 152.609h264.614V3.5H1v152.609zm175.773-47.177 4.274-.75v-8.421l-4.274.75v8.421z"/><path d="M1 3.5h264.615v152.609H1V3.5zm0 152.609h264.615V3.5H1v152.609zm164.019-45.118 3.614-.635v-8.421l-3.614.635v8.421z"/><path d="M1 3.5h264.615v152.609H1V3.5zm0 152.609h264.615V3.5H1v152.609zm171.634-46.451 1.781-.312v-8.414l-1.781.313v8.413z"/><path d="M1 3.5h264.615v152.609H1V3.5zm0 152.609h264.615V3.5H1v152.609zm183.792-57.007-1.816.317v8.423l1.816-.317v-8.423z"/><path d="M1 3.5h264.615v152.608H1V3.5zm0 152.608h264.615V3.5H1v152.608zm169.591-46.085.728-.128v-8.42l-.728.128v8.42z"/><path fill="#209D70" d="M1 3.5h264.615v152.609H1V3.5zm0 152.609h264.615V3.5H1v152.609zm150.872-60.76c-5.362.968-9.715-2.661-9.722-8.105-.007-5.446 4.334-10.643 9.697-11.611 5.361-.968 9.713 2.661 9.721 8.107.007 5.444-4.334 10.642-9.696 11.609z"/><path fill="#FFF" d="M1 3.5h264.615v152.609H1V3.5zm0 152.609h264.615V3.5H1v152.609zm149.736-76.255v11.863l2.816-.57V79.265l-2.816.589z"/><path fill="#FFF" d="M1 3.5h264.615v152.609H1V3.5zm0 152.609h264.615V3.5H1v152.609zm144.918-68.154 11.864-2.11.017-2.818-11.881 2.111v2.817z"/><path fill="url(#d)" fill-opacity=".6" d="m-17.004 18.297 59.508-26.47-8.069-6.776-11.154-3.348-65.784 1.6 25.499 34.994z" transform="translate(141.839 73.026)"/><path fill="url(#e)" fill-opacity=".6" d="M2.18 9.572 33.841.552l-8.069-6.776-11.153-3.348-48.459 1.179L2.18 9.572z" transform="translate(132.38 64.42)"/></g><g style="display:block"><path fill="#926607" d="m134.486 61.899 58.37-10.459-33.224-16.513-58.369 10.459 33.223 16.513z"/><path fill="#C8C9C8" d="M1 3.5h264.615v152.609H1V3.5zm0 152.609h264.615V3.5H1v152.609zM197.479 55.892c1.239 3.103-2.876 7.664-9.19 10.187-6.316 2.523-12.439 2.053-13.679-1.05-1.239-3.103 2.875-7.664 9.19-10.187 3.336-1.333 4.832-4.056 7.37-3.772 2.266.255 5.724 3.359 6.309 4.822z"/><path fill="#C8C9C8" d="M1 3.5h264.615v152.609H1V3.5zm0 152.609h264.615V3.5H1v152.609zM113.425 8.09c3.48-2.722 8.923-4.514 15.071-4.514 5.23 0 9.965 1.281 13.392 3.353 3.427 2.071 8.157 5.655 16.16 3.567l7.375 48.738-18.889 2.245s-30.675 3.509-40.554-2.274c0 0-10.935-12.451-4.746-34.515 0 0 1.764-8.446 12.191-16.6z"/><path fill="#B8B8B8" d="M1 3.5h264.615v152.609H1V3.5zm0 152.609h264.615V3.5H1v152.609zm104.919-96.954s5.367-5.564 10.577-6.331c5.21-.766 10.836 3.039 13.943 2.551 9.746-1.528 16.621-12.75 16.621-12.75s5.344 6.891 10.988 14.016c5.465 6.899 2.88 2.157 2.88 2.157l13.461-3.423-3.422 4s-9.729 1.722-10.955 1.722c-1.225.001-18.544.85-19.084.89-.539.04-26.371 2.629-35.009-2.832z"/><path fill="#C8C9C8" d="M1 3.5h264.615v152.609H1V3.5zm0 152.609h264.615V3.5H1v152.609zm167.982-91.873c-.589 3.289-6.493 4.983-13.188 3.783-6.693-1.199-11.642-4.837-11.052-8.125.589-3.289 6.493-4.984 13.187-3.785 6.694 1.199 11.643 4.838 11.053 8.127z"/><path fill="#B8B8B8" d="M1 3.5h264.615v152.609H1V3.5zm0 152.609h264.615V3.5H1v152.609zm167.195-93.78c-.489 1.496-2.884 2.057-5.35 1.251-2.256-.737-8.202-6.825-7.954-7.824l.408.025c.642-.001 3.019.161 9.316 2.381 1.144.403 1.765 1.111 2.416 1.8.742.784 1.424 1.571 1.164 2.367z"/><path fill="#B8B8B8" d="M1 3.5h264.615v152.609H1V3.5zm0 152.609h264.615V3.5H1v152.609zM175.693 60.32c.489 1.496 2.973 1.583 5.438.778 2.465-.805 11.84-8.552 11.352-10.049-.488-1.496-10.745 4.298-13.21 5.104-2.466.805-4.068 2.67-3.58 4.167z"/><path fill="#B8B8B8" d="M1 3.5h264.615v152.609H1V3.5zm0 152.609h264.615V3.5H1v152.609zM116.04 6.433c-.222.127-20.344 12.017-4.062 17.486 16.282 5.469 24.926-19.154 24.926-19.154s-11.35-3.752-20.864 1.668z"/><path fill="#B8B8B8" d="M1 3.5h264.615v152.609H1V3.5zm0 152.609h264.615V3.5H1v152.609zM137.623 40.612c0 3.799-3.99 6.88-8.912 6.88-4.922 0-8.912-3.081-8.912-6.88s3.99-6.878 8.912-6.878c4.922 0 8.912 3.079 8.912 6.878z"/></g><g style="display:block"><path fill="#E4E4E4" d="M1 2.25h264.615v152.609H1V2.25zm0 152.609h264.615V2.25H1v152.609zM185.017 13.945c.094-.127 6.9-7.756 6.9-7.756s2.394-2.118 2.676 1.695l-.892 14.192"/><path fill="#C8C8C8" d="M1 2.25h264.615v152.609H1V2.25zm0 152.609h264.615V2.25H1v152.609zM187.34 13.467c.053-.071 3.858-4.337 3.858-4.337s1.339-1.184 1.496.948l-.499 7.934"/><path fill="#B8B8B8" d="M1 2.25h264.614v152.609H1V2.25zm0 152.609h264.614V2.25H1v152.609zM191.792 8.818c.379-.079.815.098.901 1.259l-.499 7.934"/><path fill="#E4E4E4" d="M1 2.25h264.615v152.609H1V2.25zm0 152.609h264.615V2.25H1v152.609zM199.868 32.73c0 14.792-12.379 26.784-27.648 26.784-15.27 0-27.648-11.992-27.648-26.784 0-14.792 12.378-26.784 27.648-26.784 15.269 0 27.648 11.992 27.648 26.784z"/><path fill="#E4E4E4" d="M1 2.25h264.615v152.609H1V2.25zm0 152.609h264.615V2.25H1v152.609zM155.772 18.011l.127-10.875c.801-4.153 4.031-1.5 4.031-1.5s3.486 3.597 6.153 6.356"/><path fill="#C8C8C8" d="M1 2.25h264.615v152.609H1V2.25zm0 152.609h264.615V2.25H1v152.609zM165.412 13.656c-1.639-1.696-4.821-4.982-4.821-4.982s-1.963-1.613-2.451.911l-.084 7.285"/><path fill="#B8B8B8" d="M1 2.25h264.615v152.609H1V2.25zm0 152.609h264.615V2.25H1v152.609zM162.328 14.995l3.084-1.338c-1.639-1.696-4.821-4.982-4.821-4.982s-.767-.63-1.461-.486c0 0 .798.511 1.431 1.436.475.693.866 1.782.866 1.782l.648 2.432.253 1.156z"/><path fill="#C8C8C8" d="M1 2.25h264.615v152.609H1V2.25zm0 152.609h264.615V2.25H1v152.609zM194.042 21.678c-1.757 3.369-7.484 3.856-12.792 1.088-5.309-2.768-8.187-7.742-6.432-11.111 1.757-3.369 7.484-3.855 12.792-1.088 5.309 2.768 8.188 7.742 6.432 11.111z"/></g><g style="display:block"><path fill="#C8C8C8" d="M1 2.25h264.615v152.609H1V2.25zm0 152.609h264.615V2.25H1v152.609zM192.872 38.555l.147-.483c-5.34-1.649-10.772.448-10.826.468l.093.236.021.251c.046.003 4.647-.3 10.124 2.57l.236-.446c-3.711-1.945-6.938-2.464-8.78-2.594 1.93-.499 5.456-1.094 8.985-.002z"/><path fill="#C8C8C8" d="M1 2.25h264.615v152.609H1V2.25zm0 152.609h264.615V2.25H1v152.609zM173.837 38.995c-.064-.027-6.325-2.45-12.201.028l.197.467c3.99-1.683 8.132-1.027 10.29-.479-1.889.135-5.216.679-9.022 2.732l.241.444c5.588-3.014 10.342-2.707 10.381-2.706l.02-.252.094-.234z"/><path fill="#8E8E8E" d="M1 2.25h264.615v152.609H1V2.25zm0 152.609h264.615V2.25H1v152.609zm185.237-115.16a.386.386 0 0 0-.477.248c-.022.074-.6 1.813-2.972 2.261-2.458.473-3.625-.763-4.446-2.026-.025-.038-.07-.045-.105-.071-.032-.025-.047-.064-.087-.078-.009-.003-.018.004-.026.001-.05-.014-.096.001-.148.008-.048.007-.091.002-.132.026-.008.004-.02-.002-.028.004-.038.024-.044.068-.069.102-.026.032-.067.048-.081.088-.028.075-.683 1.826-3.343 2.291-2.791.482-4.071-.752-4.985-2.02a.383.383 0 0 0-.532-.084.379.379 0 0 0-.087.528c.849 1.173 2.099 2.442 4.432 2.442.399 0 .833-.038 1.299-.12 2.155-.376 3.179-1.506 3.625-2.207.738.978 1.844 1.974 3.718 1.974.35 0 .73-.036 1.136-.112 2.834-.538 3.527-2.692 3.556-2.783a.378.378 0 0 0-.248-.472z"/><path fill="#D20612" d="M1 2.25h264.615v152.609H1V2.25zm0 152.609h264.615V2.25H1v152.609zM178.151 40.972l-3.759-3.8h7.11l-3.351 3.8z"/></g><g style="display:block"><path d="M168.541 31.5a1.82 1.82 0 1 1-3.64 0 1.82 1.82 0 0 1 3.64 0zM188.621 31.5a1.82 1.82 0 1 1-3.64 0 1.82 1.82 0 0 1 3.64 0z"/></g><g style="display:block"><path fill="#C8C9C8" d="M101.999 44.838s-15.292 4.261-16.186 19.11c0 0-1.189 14.341 18.798 17.298 0 0 19.848 4.169 21.405-5.485 0 0 1.224-11.262-7.403-9.194-3.567.553-10.054.843-12.844-.459 0 0-4.223-2.844.846-7.671l-4.616-13.599z"/><path fill="#B8B8B8" d="M110.305 55.562s-13.222 1.251-10.692 8.334c0 0 1.14 2.634 8.004 2.772 0 0-1.662-.289-2.303-.957-.95-.989-2.376-3.238.604-6.558 0 0 2.944-2.838 4.387-3.591z"/></g></g></svg>