<?xml version="1.0" encoding="utf-8"?>
<!-- Generator: Adobe Illustrator 27.0.1, SVG Export Plug-In . SVG Version: 6.00 Build 0)  -->
<svg version="1.1" id="Laag_1" xmlns="http://www.w3.org/2000/svg" xmlns:xlink="http://www.w3.org/1999/xlink" x="0px" y="0px"
	 viewBox="0 0 700 700" style="enable-background:new 0 0 700 700;" xml:space="preserve">
<g>
	<path d="M578.6,159.8L180.4,593.3c-19.5,21.2-48.7,26.6-64.9,11.8c-16.1-14.7-13.3-44.3,6.2-65.6l397.7-432.9
		c19.5-21.2,48.7-26.6,64.9-11.8C600.4,109.6,598.1,138.6,578.6,159.8L578.6,159.8z"/>
	<path d="M121.4,159.8c-19.5-21.2-21.8-50.2-5.7-65s45.4-9.4,64.9,11.8l397.7,432.9c19.6,21.3,22.3,50.9,6.2,65.6
		c-16.1,14.8-45.4,9.4-64.9-11.8L121.4,159.8L121.4,159.8z"/>
</g>
</svg>
