<?xml version="1.0" encoding="utf-8"?>
<!-- Generator: Adobe Illustrator 27.0.1, SVG Export Plug-In . SVG Version: 6.00 Build 0)  -->
<svg version="1.1" id="Laag_1" xmlns="http://www.w3.org/2000/svg" xmlns:xlink="http://www.w3.org/1999/xlink" x="0px" y="0px"
	 viewBox="0 0 700 700" style="enable-background:new 0 0 700 700;" xml:space="preserve">
<g>
	<path d="M573.2,163.5H127.4c-21.8,0-39.8-17.9-39.8-39.8s18-39.7,39.8-39.7h445.2c21.8,0,39.8,17.9,39.8,39.8
		C612.4,145.6,595,163.5,573.2,163.5L573.2,163.5z"/>
	<path d="M573.2,389.8H127.4c-21.8,0-39.8-17.9-39.8-39.8s17.9-39.8,39.8-39.8h445.2c21.8,0,39.8,17.9,39.8,39.8
		C612.4,371.8,595,389.8,573.2,389.8L573.2,389.8z"/>
	<path d="M573.2,616H127.4c-21.8,0-39.8-17.9-39.8-39.8c0-21.8,17.9-39.8,39.8-39.8h445.2c21.8,0,39.8,17.9,39.8,39.8
		S595,616,573.2,616L573.2,616z"/>
</g>
</svg>
