<?xml version="1.0" encoding="utf-8"?>
<!-- Generator: Adobe Illustrator 27.0.1, SVG Export Plug-In . SVG Version: 6.00 Build 0)  -->
<svg version="1.1" id="Layer_1" xmlns="http://www.w3.org/2000/svg" xmlns:xlink="http://www.w3.org/1999/xlink" x="0px" y="0px"
	 viewBox="0 0 82.4 60.9" style="enable-background:new 0 0 82.4 60.9;" xml:space="preserve">
<style type="text/css">
	.st0{opacity:0.5;fill:url(#SVGID_1_);enable-background:new    ;}
	.st1{opacity:0.5;fill:url(#SVGID_00000085234402249699617120000015212837390534251422_);enable-background:new    ;}
	.st2{fill:#FDDE84;}
	.st3{opacity:0.4;fill:#AA7B33;enable-background:new    ;}
	.st4{fill:#C39000;}
	.st5{fill:#FCCE09;}
	.st6{fill:#FFFFFF;}
	.st7{fill-rule:evenodd;clip-rule:evenodd;}
	.st8{fill:#3A3A3A;}
	.st9{fill:#E5E5E5;}
	.st10{fill:#D20612;}
	.st11{fill:#8E8E8E;}
</style>
<g>
	
		<linearGradient id="SVGID_1_" gradientUnits="userSpaceOnUse" x1="52.5603" y1="-0.4989" x2="56.3544" y2="6.9475" gradientTransform="matrix(1 0 0 -1 0 61.89)">
		<stop  offset="0.2692" style="stop-color:#1D1D1B;stop-opacity:0"/>
		<stop  offset="0.5113" style="stop-color:#181816;stop-opacity:0.3645"/>
		<stop  offset="0.8171" style="stop-color:#080807;stop-opacity:0.8249"/>
		<stop  offset="0.9333" style="stop-color:#000000"/>
	</linearGradient>
	<polygon class="st0" points="49.8,60.9 62.9,58.3 59.1,56.4 46,59 	"/>
	
		<linearGradient id="SVGID_00000083781641549025975140000007971123708931057309_" gradientUnits="userSpaceOnUse" x1="12.0371" y1="8.9555" x2="15.9156" y2="16.5675" gradientTransform="matrix(1 0 0 -1 0 61.89)">
		<stop  offset="0.2692" style="stop-color:#1D1D1B;stop-opacity:0"/>
		<stop  offset="0.5113" style="stop-color:#181816;stop-opacity:0.3645"/>
		<stop  offset="0.8171" style="stop-color:#080807;stop-opacity:0.8249"/>
		<stop  offset="0.9333" style="stop-color:#000000"/>
	</linearGradient>
	
		<polygon style="opacity:0.5;fill:url(#SVGID_00000083781641549025975140000007971123708931057309_);enable-background:new    ;" points="
		18.5,56 31.7,53.4 9.4,42.3 -3.8,44.9 	"/>
	<polygon class="st2" points="31.7,18.1 70.9,11.1 48.6,0 9.4,7 	"/>
	<polygon class="st3" points="22.1,13.3 61.3,6.3 57.6,4.5 18.3,11.5 	"/>
	<g>
		<polygon class="st4" points="31.7,18.1 31.7,53.4 9.4,42.3 9.4,7 		"/>
	</g>
	<polygon class="st3" points="22.1,13.3 22.1,21 18.3,19 18.3,11.5 	"/>
	<polygon class="st5" points="31.7,18.1 31.7,53.4 70.9,46.3 70.9,11.1 	"/>
	<polygon class="st6" points="43.2,32.7 43.2,45.9 66.1,41.8 66.1,28.6 	"/>
	<g>
		<g>
			<g>
				<path class="st7" d="M56.4,41c1.4-0.2,2.7-0.5,4-0.7c0-2.6,0-5.3,0-7.9c-1.3,0.2-2.7,0.5-4,0.7C56.4,35.7,56.4,38.4,56.4,41z"/>
			</g>
			<g>
				<path class="st7" d="M45.3,42.9c1.2-0.2,2.3-0.4,3.4-0.6c0-2.6,0-5.3,0-7.9c-1.2,0.2-2.3,0.4-3.4,0.6
					C45.3,37.7,45.3,40.3,45.3,42.9z"/>
			</g>
			<g>
				<path class="st7" d="M52.5,41.7c0.6-0.1,1.1-0.2,1.7-0.3c0-2.6,0-5.3,0-7.9c-0.6,0.1-1.1,0.2-1.7,0.3
					C52.5,36.4,52.5,39,52.5,41.7z"/>
			</g>
			<g>
				<path class="st7" d="M63.9,31.8c-0.6,0.1-1.1,0.2-1.7,0.3c0,2.7,0,5.3,0,7.9c0.6-0.1,1.1-0.2,1.7-0.3
					C63.9,37,63.9,34.4,63.9,31.8z"/>
			</g>
			<g>
				<path class="st7" d="M50.6,42c0.2,0,0.4-0.1,0.7-0.1c0-2.6,0-5.3,0-7.9c-0.3,0-0.5,0.1-0.7,0.1C50.6,36.8,50.6,39.4,50.6,42z"/>
			</g>
		</g>
	</g>
	<path class="st8" d="M60.8,57.4L79.5,54c0.9-0.2,1.7-1.1,1.7-2l1-36.2c-0.5-1.4-2-2.3-4.2-1.8l-17,3.1c-1.1,0.2-2,1.3-2,2.4v36.8
		c0,0,0,1.7,1.1,2.1c0.4,0.2,1,0.2,1.5,0.2"/>
	<path d="M80.7,55.1L62,58.5c-1,0.2-1.8-0.5-1.8-1.4V20.2c0-1,0.8-1.9,1.7-2l18.7-3.4c0.9-0.2,1.7,0.5,1.7,1.4v36.9
		C82.4,54,81.6,54.9,80.7,55.1z"/>
	<polygon class="st6" points="80.9,50.8 61.7,54.2 61.6,22.5 80.9,19 	"/>
	<polygon class="st5" points="80.9,22.4 61.6,25.9 61.6,22.5 80.9,19 	"/>
	<polygon class="st9" points="80.9,50.8 61.7,54.2 61.7,50.8 80.9,47.4 	"/>
	<g>
		<polygon class="st10" points="68.3,23.9 62.5,25 62.5,23.1 68.3,22.1 		"/>
	</g>
	<g>
		<polygon class="st11" points="69.2,46 69.1,28.8 69.3,28.8 69.4,46 		"/>
	</g>
	<ellipse transform="matrix(0.6424 -0.7664 0.7664 0.6424 2.6472 63.3493)" class="st11" cx="69.2" cy="28.8" rx="0.7" ry="0.6"/>
	<ellipse transform="matrix(0.6424 -0.7664 0.7664 0.6424 -1.7597 65.4625)" class="st11" cx="69.3" cy="34.6" rx="0.7" ry="0.6"/>
	<polygon class="st11" points="67.1,29 65.5,29.3 65.5,29.8 67.1,29.5 	"/>
	<polygon class="st11" points="67.1,34.8 65.5,35.1 65.5,35.6 67.1,35.3 	"/>
	<polygon class="st11" points="78,27.1 71.3,28.3 71.3,28.8 78,27.6 	"/>
	<polygon class="st11" points="77.1,33 71.3,34 71.3,34.5 77.1,33.5 	"/>
	<polygon class="st11" points="71.3,29.7 71.3,30.2 75.2,29.5 75.2,29 	"/>
	<ellipse transform="matrix(0.6424 -0.7664 0.7664 0.6424 -6.1484 67.477)" class="st11" cx="69.2" cy="40.3" rx="0.7" ry="0.6"/>
	<polygon class="st11" points="67.1,40.5 65.5,40.8 65.5,41.3 67.1,41 	"/>
	<polygon class="st11" points="78,38.5 71.3,39.7 71.3,40.2 78,39 	"/>
	<polygon class="st11" points="71.3,41.2 71.3,41.7 75.2,41 75.2,40.5 	"/>
	<ellipse transform="matrix(0.6424 -0.7664 0.7664 0.6424 -10.5431 69.5005)" class="st11" cx="69.2" cy="46" rx="0.7" ry="0.6"/>
	<polygon class="st11" points="67.1,46.2 65.5,46.5 65.5,47 67.1,46.8 	"/>
	<polygon class="st11" points="77.1,44.4 71.3,45.5 71.3,46 77.1,45 	"/>
</g>
</svg>
