<?xml version="1.0" encoding="utf-8"?>
<!-- Generator: Adobe Illustrator 27.0.1, SVG Export Plug-In . SVG Version: 6.00 Build 0)  -->
<svg version="1.1" id="Laag_1" xmlns="http://www.w3.org/2000/svg" xmlns:xlink="http://www.w3.org/1999/xlink" x="0px" y="0px"
	 viewBox="0 0 700 700" style="enable-background:new 0 0 700 700;" xml:space="preserve">
<style type="text/css">
	.st0{fill:#E8E8E8;}
	.st1{fill:#C6313C;}
</style>
<g>
	<path class="st0" d="M574,350c0-123.7-100.3-224-224-224S126,226.3,126,350s100.3,224,224,224S574,473.7,574,350z"/>
</g>
<path class="st1" d="M350,490.1L350,490.1c-14.7,0-26.7-11.9-26.7-26.7V236.6c0-14.7,11.9-26.7,26.7-26.7l0,0
	c14.7,0,26.7,11.9,26.7,26.7v226.9C376.7,478.2,364.7,490.1,350,490.1z"/>
<path class="st1" d="M209.9,350L209.9,350c0-14.7,11.9-26.7,26.7-26.7h226.9c14.7,0,26.7,11.9,26.7,26.7l0,0
	c0,14.7-11.9,26.7-26.7,26.7H236.6C221.8,376.7,209.9,364.7,209.9,350z"/>
</svg>
