<?xml version="1.0" encoding="utf-8"?>
<!-- Generator: Adobe Illustrator 27.0.1, SVG Export Plug-In . SVG Version: 6.00 Build 0)  -->
<svg version="1.1" id="Laag_1" xmlns="http://www.w3.org/2000/svg" xmlns:xlink="http://www.w3.org/1999/xlink" x="0px" y="0px"
	 viewBox="0 0 700 700" style="enable-background:new 0 0 700 700;" xml:space="preserve">
<style type="text/css">
	.st0{fill:#F7F7F7;}
	.st1{fill:#C6313C;}
</style>
<path class="st0" d="M350,126c-123.7,0-224,100.3-224,224s100.3,224,224,224s224-100.3,224-224S473.7,126,350,126z"/>
<path class="st1" d="M462.3,292c-2.2-12.1-12.7-21-24.8-23.7c-18.2-3.9-51.9-6.6-88.3-6.6s-70.6,2.8-88.9,6.6
	c-12.1,2.8-22.6,11-24.8,23.7c-2.2,13.8-4.4,33.1-4.4,58s2.2,44.2,5,58c2.2,12.1,12.7,21,24.8,23.7c19.3,3.9,52.4,6.6,88.9,6.6
	s69.6-2.8,88.9-6.6c12.1-2.8,22.6-11,24.8-23.7c2.2-13.8,5-33.7,5.5-58C467.8,325.2,465.1,305.8,462.3,292z M319.4,388.6v-77.3
	l67.3,38.6L319.4,388.6z"/>
</svg>
